<svg width="1198" height="821" viewBox="0 0 1198 821" fill="none" xmlns="http://www.w3.org/2000/svg">
<rect x="1" y="1" width="1196" height="819" fill="#FF847A" stroke="black" stroke-width="2"/>
<rect x="130" y="120" width="938" height="584" fill="#FFC63A" stroke="black" stroke-width="2"/>
<rect x="225" y="233" width="748" height="355" fill="#1AC482" stroke="black" stroke-width="2"/>
<rect x="354" y="350" width="489" height="121" fill="#7BB8FF" stroke="black" stroke-width="2"/>
<path d="M534.397 424.432C531.109 424.432 528.673 423.304 527.089 421.048C525.529 418.792 524.749 415.588 524.749 411.436C524.749 407.308 525.529 404.116 527.089 401.86C528.673 399.58 531.109 398.44 534.397 398.44C535.645 398.44 536.737 398.608 537.673 398.944C538.633 399.28 539.461 399.748 540.157 400.348C540.853 400.924 541.429 401.632 541.885 402.472C542.341 403.288 542.701 404.188 542.965 405.172L538.645 406.396C538.477 405.82 538.285 405.28 538.069 404.776C537.853 404.272 537.577 403.84 537.241 403.48C536.929 403.096 536.533 402.808 536.053 402.616C535.573 402.4 534.997 402.292 534.325 402.292C532.693 402.292 531.517 402.916 530.797 404.164C530.101 405.412 529.753 407.116 529.753 409.276V413.596C529.753 415.756 530.101 417.46 530.797 418.708C531.517 419.956 532.693 420.58 534.325 420.58C534.997 420.58 535.573 420.484 536.053 420.292C536.533 420.076 536.929 419.788 537.241 419.428C537.577 419.044 537.853 418.6 538.069 418.096C538.285 417.592 538.477 417.052 538.645 416.476L542.965 417.7C542.701 418.684 542.341 419.596 541.885 420.436C541.429 421.252 540.853 421.96 540.157 422.56C539.461 423.136 538.633 423.592 537.673 423.928C536.737 424.264 535.645 424.432 534.397 424.432ZM555.335 424.432C553.919 424.432 552.647 424.204 551.519 423.748C550.415 423.292 549.467 422.644 548.675 421.804C547.907 420.964 547.307 419.944 546.875 418.744C546.467 417.544 546.263 416.2 546.263 414.712C546.263 413.224 546.467 411.88 546.875 410.68C547.307 409.48 547.907 408.46 548.675 407.62C549.467 406.78 550.415 406.132 551.519 405.676C552.647 405.22 553.919 404.992 555.335 404.992C556.727 404.992 557.987 405.22 559.115 405.676C560.243 406.132 561.191 406.78 561.959 407.62C562.751 408.46 563.351 409.48 563.759 410.68C564.191 411.88 564.407 413.224 564.407 414.712C564.407 416.2 564.191 417.544 563.759 418.744C563.351 419.944 562.751 420.964 561.959 421.804C561.191 422.644 560.243 423.292 559.115 423.748C557.987 424.204 556.727 424.432 555.335 424.432ZM555.335 420.904C556.655 420.904 557.699 420.508 558.467 419.716C559.235 418.9 559.619 417.712 559.619 416.152V413.272C559.619 411.712 559.235 410.536 558.467 409.744C557.699 408.928 556.655 408.52 555.335 408.52C554.015 408.52 552.971 408.928 552.203 409.744C551.435 410.536 551.051 411.712 551.051 413.272V416.152C551.051 417.712 551.435 418.9 552.203 419.716C552.971 420.508 554.015 420.904 555.335 420.904ZM568.821 424V405.424H573.429V408.7H573.609C574.017 407.692 574.641 406.828 575.481 406.108C576.345 405.364 577.533 404.992 579.045 404.992C580.869 404.992 582.345 405.604 583.473 406.828C584.625 408.028 585.201 409.756 585.201 412.012V424H580.593V412.66C580.593 409.972 579.429 408.628 577.101 408.628C576.621 408.628 576.165 408.688 575.733 408.808C575.301 408.928 574.905 409.12 574.545 409.384C574.209 409.624 573.933 409.924 573.717 410.284C573.525 410.644 573.429 411.076 573.429 411.58V424H568.821ZM599.767 424C597.991 424 596.683 423.532 595.843 422.596C595.003 421.66 594.583 420.448 594.583 418.96V409.06H589.183V405.424H592.855C593.599 405.424 594.127 405.28 594.439 404.992C594.751 404.68 594.907 404.14 594.907 403.372V398.872H599.191V405.424H606.751V409.06H599.191V420.364H606.751V424H599.767ZM620.525 424.432C619.037 424.432 617.717 424.204 616.565 423.748C615.413 423.292 614.441 422.644 613.649 421.804C612.881 420.964 612.293 419.956 611.885 418.78C611.477 417.58 611.273 416.236 611.273 414.748C611.273 413.236 611.477 411.88 611.885 410.68C612.317 409.48 612.917 408.46 613.685 407.62C614.453 406.78 615.377 406.132 616.457 405.676C617.561 405.22 618.797 404.992 620.165 404.992C621.509 404.992 622.721 405.22 623.801 405.676C624.881 406.108 625.793 406.732 626.537 407.548C627.305 408.364 627.893 409.348 628.301 410.5C628.709 411.652 628.913 412.924 628.913 414.316V415.828H615.881V416.296C615.881 417.64 616.301 418.732 617.141 419.572C617.981 420.388 619.157 420.796 620.669 420.796C621.821 420.796 622.805 420.568 623.621 420.112C624.461 419.632 625.157 419.008 625.709 418.24L628.337 420.868C627.665 421.852 626.681 422.692 625.385 423.388C624.113 424.084 622.493 424.432 620.525 424.432ZM620.201 408.376C618.905 408.376 617.861 408.784 617.069 409.6C616.277 410.416 615.881 411.496 615.881 412.84V413.092H624.305V412.768C624.305 411.424 623.933 410.356 623.189 409.564C622.469 408.772 621.473 408.376 620.201 408.376ZM633.579 424V405.424H638.187V408.7H638.367C638.775 407.692 639.399 406.828 640.239 406.108C641.103 405.364 642.291 404.992 643.803 404.992C645.627 404.992 647.103 405.604 648.231 406.828C649.383 408.028 649.959 409.756 649.959 412.012V424H645.351V412.66C645.351 409.972 644.187 408.628 641.859 408.628C641.379 408.628 640.923 408.688 640.491 408.808C640.059 408.928 639.663 409.12 639.303 409.384C638.967 409.624 638.691 409.924 638.475 410.284C638.283 410.644 638.187 411.076 638.187 411.58V424H633.579ZM664.525 424C662.749 424 661.441 423.532 660.601 422.596C659.761 421.66 659.341 420.448 659.341 418.96V409.06H653.941V405.424H657.613C658.357 405.424 658.885 405.28 659.197 404.992C659.509 404.68 659.665 404.14 659.665 403.372V398.872H663.949V405.424H671.509V409.06H663.949V420.364H671.509V424H664.525Z" fill="black"/>
<path d="M291.329 304V278.872H300.869C303.317 278.872 305.189 279.568 306.485 280.96C307.781 282.352 308.429 284.248 308.429 286.648C308.429 289.048 307.781 290.944 306.485 292.336C305.189 293.728 303.317 294.424 300.869 294.424H296.045V304H291.329ZM296.045 290.572H299.897C301.169 290.572 302.081 290.32 302.633 289.816C303.185 289.288 303.461 288.46 303.461 287.332V285.964C303.461 284.836 303.185 284.02 302.633 283.516C302.081 282.988 301.169 282.724 299.897 282.724H296.045V290.572ZM327.675 304C326.547 304 325.671 303.724 325.047 303.172C324.447 302.596 324.087 301.804 323.967 300.796H323.787C323.451 301.948 322.791 302.848 321.807 303.496C320.823 304.12 319.611 304.432 318.171 304.432C316.299 304.432 314.811 303.94 313.707 302.956C312.603 301.972 312.051 300.604 312.051 298.852C312.051 295.108 314.799 293.236 320.295 293.236H323.571V292.012C323.571 290.836 323.283 289.948 322.707 289.348C322.131 288.748 321.195 288.448 319.899 288.448C318.723 288.448 317.775 288.676 317.055 289.132C316.335 289.588 315.723 290.176 315.219 290.896L312.591 288.664C313.167 287.632 314.091 286.768 315.363 286.072C316.659 285.352 318.327 284.992 320.367 284.992C322.815 284.992 324.723 285.568 326.091 286.72C327.483 287.848 328.179 289.54 328.179 291.796V300.544H330.375V304H327.675ZM319.719 301.264C320.823 301.264 321.735 301.012 322.455 300.508C323.199 299.98 323.571 299.272 323.571 298.384V295.9H320.403C317.883 295.9 316.623 296.692 316.623 298.276V298.996C316.623 299.74 316.899 300.304 317.451 300.688C318.003 301.072 318.759 301.264 319.719 301.264ZM346.129 300.724H345.877C345.373 301.852 344.677 302.752 343.789 303.424C342.925 304.096 341.773 304.432 340.333 304.432C339.277 304.432 338.305 304.24 337.417 303.856C336.553 303.448 335.809 302.848 335.185 302.056C334.561 301.24 334.081 300.22 333.745 298.996C333.409 297.772 333.241 296.344 333.241 294.712C333.241 291.448 333.889 289.012 335.185 287.404C336.481 285.796 338.197 284.992 340.333 284.992C341.773 284.992 342.925 285.328 343.789 286C344.677 286.672 345.373 287.572 345.877 288.7H346.129V277.36H350.737V304H346.129V300.724ZM342.277 300.76C342.805 300.76 343.297 300.7 343.753 300.58C344.233 300.436 344.641 300.244 344.977 300.004C345.337 299.74 345.613 299.416 345.805 299.032C346.021 298.624 346.129 298.156 346.129 297.628V291.796C346.129 291.268 346.021 290.812 345.805 290.428C345.613 290.02 345.337 289.696 344.977 289.456C344.641 289.192 344.233 289 343.753 288.88C343.297 288.736 342.805 288.664 342.277 288.664C340.933 288.664 339.889 289.072 339.145 289.888C338.425 290.704 338.065 291.82 338.065 293.236V296.188C338.065 297.604 338.425 298.72 339.145 299.536C339.889 300.352 340.933 300.76 342.277 300.76ZM367.715 300.724H367.463C366.959 301.852 366.263 302.752 365.375 303.424C364.511 304.096 363.359 304.432 361.919 304.432C360.863 304.432 359.891 304.24 359.003 303.856C358.139 303.448 357.395 302.848 356.771 302.056C356.147 301.24 355.667 300.22 355.331 298.996C354.995 297.772 354.827 296.344 354.827 294.712C354.827 291.448 355.475 289.012 356.771 287.404C358.067 285.796 359.783 284.992 361.919 284.992C363.359 284.992 364.511 285.328 365.375 286C366.263 286.672 366.959 287.572 367.463 288.7H367.715V277.36H372.323V304H367.715V300.724ZM363.863 300.76C364.391 300.76 364.883 300.7 365.339 300.58C365.819 300.436 366.227 300.244 366.563 300.004C366.923 299.74 367.199 299.416 367.391 299.032C367.607 298.624 367.715 298.156 367.715 297.628V291.796C367.715 291.268 367.607 290.812 367.391 290.428C367.199 290.02 366.923 289.696 366.563 289.456C366.227 289.192 365.819 289 365.339 288.88C364.883 288.736 364.391 288.664 363.863 288.664C362.519 288.664 361.475 289.072 360.731 289.888C360.011 290.704 359.651 291.82 359.651 293.236V296.188C359.651 297.604 360.011 298.72 360.731 299.536C361.475 300.352 362.519 300.76 363.863 300.76ZM386.745 282.544C385.665 282.544 384.897 282.316 384.441 281.86C384.009 281.404 383.793 280.852 383.793 280.204V279.34C383.793 278.692 384.009 278.14 384.441 277.684C384.897 277.228 385.665 277 386.745 277C387.825 277 388.581 277.228 389.013 277.684C389.469 278.14 389.697 278.692 389.697 279.34V280.204C389.697 280.852 389.469 281.404 389.013 281.86C388.581 282.316 387.825 282.544 386.745 282.544ZM378.321 300.364H384.441V289.06H378.321V285.424H389.049V300.364H394.737V304H378.321V300.364ZM399.079 304V285.424H403.687V288.7H403.867C404.275 287.692 404.899 286.828 405.739 286.108C406.603 285.364 407.791 284.992 409.303 284.992C411.127 284.992 412.603 285.604 413.731 286.828C414.883 288.028 415.459 289.756 415.459 292.012V304H410.851V292.66C410.851 289.972 409.687 288.628 407.359 288.628C406.879 288.628 406.423 288.688 405.991 288.808C405.559 288.928 405.163 289.12 404.803 289.384C404.467 289.624 404.191 289.924 403.975 290.284C403.783 290.644 403.687 291.076 403.687 291.58V304H399.079ZM438.701 305.944C438.701 307.888 437.885 309.316 436.253 310.228C434.645 311.164 432.125 311.632 428.693 311.632C427.013 311.632 425.609 311.524 424.481 311.308C423.353 311.116 422.441 310.828 421.745 310.444C421.073 310.06 420.593 309.592 420.305 309.04C420.017 308.512 419.873 307.912 419.873 307.24C419.873 306.208 420.173 305.416 420.773 304.864C421.373 304.312 422.213 303.904 423.293 303.64V303.352C422.573 303.112 421.997 302.776 421.565 302.344C421.157 301.912 420.953 301.312 420.953 300.544C420.953 299.632 421.253 298.948 421.853 298.492C422.477 298.036 423.293 297.688 424.301 297.448V297.268C423.197 296.74 422.333 295.996 421.709 295.036C421.085 294.076 420.773 292.912 420.773 291.544C420.773 290.512 420.953 289.6 421.313 288.808C421.697 287.992 422.225 287.308 422.897 286.756C423.593 286.18 424.421 285.748 425.381 285.46C426.341 285.148 427.409 284.992 428.585 284.992C429.833 284.992 430.961 285.16 431.969 285.496V284.704C431.969 283.984 432.197 283.384 432.653 282.904C433.133 282.424 433.793 282.184 434.633 282.184H437.981V285.64H433.589V286.252C434.501 286.804 435.197 287.524 435.677 288.412C436.181 289.276 436.433 290.32 436.433 291.544C436.433 292.576 436.241 293.5 435.857 294.316C435.497 295.132 434.969 295.816 434.273 296.368C433.601 296.92 432.773 297.352 431.789 297.664C430.829 297.952 429.761 298.096 428.585 298.096C428.105 298.096 427.637 298.084 427.181 298.06C426.749 298.012 426.329 297.928 425.921 297.808C425.585 297.928 425.261 298.12 424.949 298.384C424.637 298.648 424.481 298.996 424.481 299.428C424.481 300.004 424.757 300.364 425.309 300.508C425.861 300.628 426.521 300.688 427.289 300.688H431.501C432.797 300.688 433.901 300.82 434.813 301.084C435.725 301.324 436.469 301.684 437.045 302.164C437.621 302.62 438.041 303.172 438.305 303.82C438.569 304.468 438.701 305.176 438.701 305.944ZM434.381 306.268C434.381 305.716 434.153 305.272 433.697 304.936C433.265 304.624 432.449 304.468 431.249 304.468H424.841C424.121 304.876 423.761 305.476 423.761 306.268C423.761 306.916 424.025 307.456 424.553 307.888C425.105 308.32 426.029 308.536 427.325 308.536H430.313C433.025 308.536 434.381 307.78 434.381 306.268ZM428.585 295.072C429.761 295.072 430.625 294.796 431.177 294.244C431.729 293.668 432.005 292.924 432.005 292.012V291.076C432.005 290.164 431.729 289.432 431.177 288.88C430.625 288.304 429.761 288.016 428.585 288.016C427.433 288.016 426.581 288.304 426.029 288.88C425.477 289.432 425.201 290.164 425.201 291.076V292.012C425.201 292.924 425.477 293.668 426.029 294.244C426.581 294.796 427.433 295.072 428.585 295.072Z" fill="black"/>
<path d="M196.122 164.872H204.87C207.246 164.872 209.07 165.472 210.342 166.672C211.638 167.848 212.286 169.456 212.286 171.496C212.286 172.936 211.926 174.088 211.206 174.952C210.51 175.816 209.514 176.44 208.218 176.824V177.004C209.73 177.364 210.918 178.024 211.782 178.984C212.67 179.92 213.114 181.252 213.114 182.98C213.114 184.036 212.934 184.996 212.574 185.86C212.238 186.7 211.746 187.432 211.098 188.056C210.474 188.68 209.706 189.16 208.794 189.496C207.906 189.832 206.898 190 205.77 190H196.122V164.872ZM204.33 186.58C205.65 186.58 206.634 186.34 207.282 185.86C207.954 185.356 208.29 184.504 208.29 183.304V182.116C208.29 180.94 207.954 180.112 207.282 179.632C206.634 179.128 205.65 178.876 204.33 178.876H200.73V186.58H204.33ZM203.718 175.6C204.99 175.6 205.926 175.372 206.526 174.916C207.15 174.46 207.462 173.668 207.462 172.54V171.352C207.462 170.224 207.15 169.432 206.526 168.976C205.926 168.52 204.99 168.292 203.718 168.292H200.73V175.6H203.718ZM225.628 190.432C224.212 190.432 222.94 190.204 221.812 189.748C220.708 189.292 219.76 188.644 218.968 187.804C218.2 186.964 217.6 185.944 217.168 184.744C216.76 183.544 216.556 182.2 216.556 180.712C216.556 179.224 216.76 177.88 217.168 176.68C217.6 175.48 218.2 174.46 218.968 173.62C219.76 172.78 220.708 172.132 221.812 171.676C222.94 171.22 224.212 170.992 225.628 170.992C227.02 170.992 228.28 171.22 229.408 171.676C230.536 172.132 231.484 172.78 232.252 173.62C233.044 174.46 233.644 175.48 234.052 176.68C234.484 177.88 234.7 179.224 234.7 180.712C234.7 182.2 234.484 183.544 234.052 184.744C233.644 185.944 233.044 186.964 232.252 187.804C231.484 188.644 230.536 189.292 229.408 189.748C228.28 190.204 227.02 190.432 225.628 190.432ZM225.628 186.904C226.948 186.904 227.992 186.508 228.76 185.716C229.528 184.9 229.912 183.712 229.912 182.152V179.272C229.912 177.712 229.528 176.536 228.76 175.744C227.992 174.928 226.948 174.52 225.628 174.52C224.308 174.52 223.264 174.928 222.496 175.744C221.728 176.536 221.344 177.712 221.344 179.272V182.152C221.344 183.712 221.728 184.9 222.496 185.716C223.264 186.508 224.308 186.904 225.628 186.904ZM239.114 186.364H243.722V175.06H239.114V171.424H248.33V176.5H248.618C248.786 175.852 249.014 175.228 249.302 174.628C249.614 174.004 249.998 173.464 250.454 173.008C250.934 172.528 251.51 172.144 252.182 171.856C252.854 171.568 253.658 171.424 254.594 171.424H256.61V175.744H252.794C251.402 175.744 250.31 176.152 249.518 176.968C248.726 177.784 248.33 178.828 248.33 180.1V186.364H254.774V190H239.114V186.364ZM272.508 186.724H272.256C271.752 187.852 271.056 188.752 270.168 189.424C269.304 190.096 268.152 190.432 266.712 190.432C265.656 190.432 264.684 190.24 263.796 189.856C262.932 189.448 262.188 188.848 261.564 188.056C260.94 187.24 260.46 186.22 260.124 184.996C259.788 183.772 259.62 182.344 259.62 180.712C259.62 177.448 260.268 175.012 261.564 173.404C262.86 171.796 264.576 170.992 266.712 170.992C268.152 170.992 269.304 171.328 270.168 172C271.056 172.672 271.752 173.572 272.256 174.7H272.508V163.36H277.116V190H272.508V186.724ZM268.656 186.76C269.184 186.76 269.676 186.7 270.132 186.58C270.612 186.436 271.02 186.244 271.356 186.004C271.716 185.74 271.992 185.416 272.184 185.032C272.4 184.624 272.508 184.156 272.508 183.628V177.796C272.508 177.268 272.4 176.812 272.184 176.428C271.992 176.02 271.716 175.696 271.356 175.456C271.02 175.192 270.612 175 270.132 174.88C269.676 174.736 269.184 174.664 268.656 174.664C267.312 174.664 266.268 175.072 265.524 175.888C264.804 176.704 264.444 177.82 264.444 179.236V182.188C264.444 183.604 264.804 184.72 265.524 185.536C266.268 186.352 267.312 186.76 268.656 186.76ZM290.818 190.432C289.33 190.432 288.01 190.204 286.858 189.748C285.706 189.292 284.734 188.644 283.942 187.804C283.174 186.964 282.586 185.956 282.178 184.78C281.77 183.58 281.566 182.236 281.566 180.748C281.566 179.236 281.77 177.88 282.178 176.68C282.61 175.48 283.21 174.46 283.978 173.62C284.746 172.78 285.67 172.132 286.75 171.676C287.854 171.22 289.09 170.992 290.458 170.992C291.802 170.992 293.014 171.22 294.094 171.676C295.174 172.108 296.086 172.732 296.83 173.548C297.598 174.364 298.186 175.348 298.594 176.5C299.002 177.652 299.206 178.924 299.206 180.316V181.828H286.174V182.296C286.174 183.64 286.594 184.732 287.434 185.572C288.274 186.388 289.45 186.796 290.962 186.796C292.114 186.796 293.098 186.568 293.914 186.112C294.754 185.632 295.45 185.008 296.002 184.24L298.63 186.868C297.958 187.852 296.974 188.692 295.678 189.388C294.406 190.084 292.786 190.432 290.818 190.432ZM290.494 174.376C289.198 174.376 288.154 174.784 287.362 175.6C286.57 176.416 286.174 177.496 286.174 178.84V179.092H294.598V178.768C294.598 177.424 294.226 176.356 293.482 175.564C292.762 174.772 291.766 174.376 290.494 174.376ZM303.872 186.364H308.48V175.06H303.872V171.424H313.088V176.5H313.376C313.544 175.852 313.772 175.228 314.06 174.628C314.372 174.004 314.756 173.464 315.212 173.008C315.692 172.528 316.268 172.144 316.94 171.856C317.612 171.568 318.416 171.424 319.352 171.424H321.368V175.744H317.552C316.16 175.744 315.068 176.152 314.276 176.968C313.484 177.784 313.088 178.828 313.088 180.1V186.364H319.532V190H303.872V186.364Z" fill="black"/>
<path d="M80.0102 62.372L80.2262 55.1H79.9022L75.0422 68.024L70.1822 55.1H69.8582L70.0742 62.372V74H65.9702V48.872H71.5862L75.0782 58.124H75.3302L78.8582 48.872H84.1142V74H80.0102V62.372ZM103.468 74C102.34 74 101.464 73.724 100.84 73.172C100.24 72.596 99.8801 71.804 99.7601 70.796H99.5801C99.2441 71.948 98.5841 72.848 97.6001 73.496C96.6161 74.12 95.4041 74.432 93.9641 74.432C92.0921 74.432 90.6041 73.94 89.5001 72.956C88.3961 71.972 87.8441 70.604 87.8441 68.852C87.8441 65.108 90.5921 63.236 96.0881 63.236H99.3641V62.012C99.3641 60.836 99.0761 59.948 98.5001 59.348C97.9241 58.748 96.9881 58.448 95.6921 58.448C94.5161 58.448 93.5681 58.676 92.8481 59.132C92.1281 59.588 91.5161 60.176 91.0121 60.896L88.3841 58.664C88.9601 57.632 89.8841 56.768 91.1561 56.072C92.4521 55.352 94.1201 54.992 96.1601 54.992C98.6081 54.992 100.516 55.568 101.884 56.72C103.276 57.848 103.972 59.54 103.972 61.796V70.544H106.168V74H103.468ZM95.5121 71.264C96.6161 71.264 97.5281 71.012 98.2481 70.508C98.9921 69.98 99.3641 69.272 99.3641 68.384V65.9H96.1961C93.6761 65.9 92.4161 66.692 92.4161 68.276V68.996C92.4161 69.74 92.6921 70.304 93.2441 70.688C93.7961 71.072 94.5521 71.264 95.5121 71.264ZM110.114 70.364H114.722V59.06H110.114V55.424H119.33V60.5H119.618C119.786 59.852 120.014 59.228 120.302 58.628C120.614 58.004 120.998 57.464 121.454 57.008C121.934 56.528 122.51 56.144 123.182 55.856C123.854 55.568 124.658 55.424 125.594 55.424H127.61V59.744H123.794C122.402 59.744 121.31 60.152 120.518 60.968C119.726 61.784 119.33 62.828 119.33 64.1V70.364H125.774V74H110.114V70.364ZM149.736 75.944C149.736 77.888 148.92 79.316 147.288 80.228C145.68 81.164 143.16 81.632 139.728 81.632C138.048 81.632 136.644 81.524 135.516 81.308C134.388 81.116 133.476 80.828 132.78 80.444C132.108 80.06 131.628 79.592 131.34 79.04C131.052 78.512 130.908 77.912 130.908 77.24C130.908 76.208 131.208 75.416 131.808 74.864C132.408 74.312 133.248 73.904 134.328 73.64V73.352C133.608 73.112 133.032 72.776 132.6 72.344C132.192 71.912 131.988 71.312 131.988 70.544C131.988 69.632 132.288 68.948 132.888 68.492C133.512 68.036 134.328 67.688 135.336 67.448V67.268C134.232 66.74 133.368 65.996 132.744 65.036C132.12 64.076 131.808 62.912 131.808 61.544C131.808 60.512 131.988 59.6 132.348 58.808C132.732 57.992 133.26 57.308 133.932 56.756C134.628 56.18 135.456 55.748 136.416 55.46C137.376 55.148 138.444 54.992 139.62 54.992C140.868 54.992 141.996 55.16 143.004 55.496V54.704C143.004 53.984 143.232 53.384 143.688 52.904C144.168 52.424 144.828 52.184 145.668 52.184H149.016V55.64H144.624V56.252C145.536 56.804 146.232 57.524 146.712 58.412C147.216 59.276 147.468 60.32 147.468 61.544C147.468 62.576 147.276 63.5 146.892 64.316C146.532 65.132 146.004 65.816 145.308 66.368C144.636 66.92 143.808 67.352 142.824 67.664C141.864 67.952 140.796 68.096 139.62 68.096C139.14 68.096 138.672 68.084 138.216 68.06C137.784 68.012 137.364 67.928 136.956 67.808C136.62 67.928 136.296 68.12 135.984 68.384C135.672 68.648 135.516 68.996 135.516 69.428C135.516 70.004 135.792 70.364 136.344 70.508C136.896 70.628 137.556 70.688 138.324 70.688H142.536C143.832 70.688 144.936 70.82 145.848 71.084C146.76 71.324 147.504 71.684 148.08 72.164C148.656 72.62 149.076 73.172 149.34 73.82C149.604 74.468 149.736 75.176 149.736 75.944ZM145.416 76.268C145.416 75.716 145.188 75.272 144.732 74.936C144.3 74.624 143.484 74.468 142.284 74.468H135.876C135.156 74.876 134.796 75.476 134.796 76.268C134.796 76.916 135.06 77.456 135.588 77.888C136.14 78.32 137.064 78.536 138.36 78.536H141.348C144.06 78.536 145.416 77.78 145.416 76.268ZM139.62 65.072C140.796 65.072 141.66 64.796 142.212 64.244C142.764 63.668 143.04 62.924 143.04 62.012V61.076C143.04 60.164 142.764 59.432 142.212 58.88C141.66 58.304 140.796 58.016 139.62 58.016C138.468 58.016 137.616 58.304 137.064 58.88C136.512 59.432 136.236 60.164 136.236 61.076V62.012C136.236 62.924 136.512 63.668 137.064 64.244C137.616 64.796 138.468 65.072 139.62 65.072ZM162.538 52.544C161.458 52.544 160.69 52.316 160.234 51.86C159.802 51.404 159.586 50.852 159.586 50.204V49.34C159.586 48.692 159.802 48.14 160.234 47.684C160.69 47.228 161.458 47 162.538 47C163.618 47 164.374 47.228 164.806 47.684C165.262 48.14 165.49 48.692 165.49 49.34V50.204C165.49 50.852 165.262 51.404 164.806 51.86C164.374 52.316 163.618 52.544 162.538 52.544ZM154.114 70.364H160.234V59.06H154.114V55.424H164.842V70.364H170.53V74H154.114V70.364ZM174.872 74V55.424H179.48V58.7H179.66C180.068 57.692 180.692 56.828 181.532 56.108C182.396 55.364 183.584 54.992 185.096 54.992C186.92 54.992 188.396 55.604 189.524 56.828C190.676 58.028 191.252 59.756 191.252 62.012V74H186.644V62.66C186.644 59.972 185.48 58.628 183.152 58.628C182.672 58.628 182.216 58.688 181.784 58.808C181.352 58.928 180.956 59.12 180.596 59.384C180.26 59.624 179.984 59.924 179.768 60.284C179.576 60.644 179.48 61.076 179.48 61.58V74H174.872Z" fill="black"/>
</svg>
