<svg width="1350" height="880" viewBox="0 0 1350 880" fill="none" xmlns="http://www.w3.org/2000/svg">
<rect width="1350" height="880" fill="#F3F0FF"/>
<rect x="50.5" y="90.5" width="368.822" height="249" fill="#C7B9FB" stroke="black"/>
<rect x="930.678" y="140.5" width="368.822" height="249" fill="#C7B9FB" stroke="black"/>
<rect x="50.5" y="538.5" width="368.822" height="249" fill="#C7B9FB" stroke="black"/>
<rect x="930.678" y="488.5" width="368.822" height="249" fill="#C7B9FB" stroke="black"/>
<rect x="50.5" y="339.5" width="368.822" height="100" fill="#FF847A" stroke="black"/>
<rect x="50.5" y="439.5" width="368.822" height="99" fill="#FF847A" stroke="black"/>
<rect x="930.678" y="389.5" width="368.822" height="99" fill="#FF847A" stroke="black"/>
<path d="M182.546 78V64.04H191.466V66.5H185.546V69.7H191.266V72.16H185.546V75.54H191.466V78H182.546ZM194.299 75.7H197.459V65.5H194.299V63.2H200.419V75.7H203.579V78H194.299V75.7ZM211.211 78.24C209.477 78.24 208.164 77.76 207.271 76.8C206.377 75.84 205.931 74.5333 205.931 72.88C205.931 72.04 206.044 71.2867 206.271 70.62C206.511 69.94 206.844 69.3667 207.271 68.9C207.711 68.42 208.237 68.06 208.851 67.82C209.477 67.5667 210.177 67.44 210.951 67.44C211.724 67.44 212.417 67.5667 213.031 67.82C213.644 68.06 214.164 68.4067 214.591 68.86C215.017 69.3133 215.344 69.8667 215.571 70.52C215.811 71.16 215.931 71.88 215.931 72.68V73.56H208.871V73.74C208.871 74.4067 209.077 74.9467 209.491 75.36C209.904 75.76 210.511 75.96 211.311 75.96C211.924 75.96 212.451 75.8467 212.891 75.62C213.331 75.38 213.711 75.0667 214.031 74.68L215.631 76.42C215.231 76.9133 214.671 77.34 213.951 77.7C213.231 78.06 212.317 78.24 211.211 78.24ZM210.971 69.56C210.331 69.56 209.817 69.76 209.431 70.16C209.057 70.5467 208.871 71.0733 208.871 71.74V71.9H213.031V71.74C213.031 71.06 212.844 70.5267 212.471 70.14C212.111 69.7533 211.611 69.56 210.971 69.56ZM217.523 78V67.68H219.903V69.2H220.043C220.203 68.72 220.43 68.3067 220.723 67.96C221.03 67.6133 221.456 67.44 222.003 67.44C223.003 67.44 223.616 68.0267 223.843 69.2H223.963C224.043 68.96 224.143 68.7333 224.263 68.52C224.383 68.3067 224.53 68.12 224.703 67.96C224.876 67.8 225.083 67.6733 225.323 67.58C225.563 67.4867 225.843 67.44 226.163 67.44C227.603 67.44 228.323 68.5 228.323 70.62V78H225.943V70.92C225.943 70.44 225.856 70.1067 225.683 69.92C225.523 69.72 225.31 69.62 225.043 69.62C224.79 69.62 224.57 69.7067 224.383 69.88C224.21 70.04 224.123 70.2933 224.123 70.64V78H221.723V70.92C221.723 70.44 221.643 70.1067 221.483 69.92C221.336 69.72 221.13 69.62 220.863 69.62C220.596 69.62 220.37 69.7067 220.183 69.88C219.996 70.04 219.903 70.2933 219.903 70.64V78H217.523ZM235.195 78.24C233.462 78.24 232.148 77.76 231.255 76.8C230.362 75.84 229.915 74.5333 229.915 72.88C229.915 72.04 230.028 71.2867 230.255 70.62C230.495 69.94 230.828 69.3667 231.255 68.9C231.695 68.42 232.222 68.06 232.835 67.82C233.462 67.5667 234.162 67.44 234.935 67.44C235.708 67.44 236.402 67.5667 237.015 67.82C237.628 68.06 238.148 68.4067 238.575 68.86C239.002 69.3133 239.328 69.8667 239.555 70.52C239.795 71.16 239.915 71.88 239.915 72.68V73.56H232.855V73.74C232.855 74.4067 233.062 74.9467 233.475 75.36C233.888 75.76 234.495 75.96 235.295 75.96C235.908 75.96 236.435 75.8467 236.875 75.62C237.315 75.38 237.695 75.0667 238.015 74.68L239.615 76.42C239.215 76.9133 238.655 77.34 237.935 77.7C237.215 78.06 236.302 78.24 235.195 78.24ZM234.955 69.56C234.315 69.56 233.802 69.76 233.415 70.16C233.042 70.5467 232.855 71.0733 232.855 71.74V71.9H237.015V71.74C237.015 71.06 236.828 70.5267 236.455 70.14C236.095 69.7533 235.595 69.56 234.955 69.56ZM242.207 78V67.68H245.167V69.56H245.287C245.407 69.2667 245.554 68.9933 245.727 68.74C245.901 68.4867 246.107 68.2667 246.347 68.08C246.601 67.88 246.887 67.7267 247.207 67.62C247.541 67.5 247.914 67.44 248.327 67.44C248.821 67.44 249.274 67.5267 249.687 67.7C250.101 67.86 250.454 68.1067 250.747 68.44C251.041 68.7733 251.267 69.18 251.427 69.66C251.601 70.14 251.687 70.6933 251.687 71.32V78H248.727V71.72C248.727 70.3867 248.147 69.72 246.987 69.72C246.761 69.72 246.534 69.7533 246.307 69.82C246.094 69.8733 245.901 69.9667 245.727 70.1C245.554 70.22 245.414 70.3733 245.307 70.56C245.214 70.7467 245.167 70.9667 245.167 71.22V78H242.207ZM259.7 78C258.633 78 257.84 77.72 257.32 77.16C256.8 76.6 256.54 75.8867 256.54 75.02V69.98H253.74V67.68H255.56C256 67.68 256.313 67.5933 256.5 67.42C256.686 67.2467 256.78 66.9267 256.78 66.46V64.04H259.5V67.68H263.52V69.98H259.5V75.7H263.52V78H259.7ZM285.584 78L284.704 74.64H280.884L280.024 78H276.984L280.764 64.04H285.004L288.784 78H285.584ZM282.884 66.94H282.724L281.364 72.22H284.244L282.884 66.94Z" fill="black"/>
<path d="M1062.72 128V114.04H1071.64V116.5H1065.72V119.7H1071.44V122.16H1065.72V125.54H1071.64V128H1062.72ZM1074.48 125.7H1077.64V115.5H1074.48V113.2H1080.6V125.7H1083.76V128H1074.48V125.7ZM1091.39 128.24C1089.66 128.24 1088.34 127.76 1087.45 126.8C1086.56 125.84 1086.11 124.533 1086.11 122.88C1086.11 122.04 1086.22 121.287 1086.45 120.62C1086.69 119.94 1087.02 119.367 1087.45 118.9C1087.89 118.42 1088.42 118.06 1089.03 117.82C1089.66 117.567 1090.36 117.44 1091.13 117.44C1091.9 117.44 1092.6 117.567 1093.21 117.82C1093.82 118.06 1094.34 118.407 1094.77 118.86C1095.2 119.313 1095.52 119.867 1095.75 120.52C1095.99 121.16 1096.11 121.88 1096.11 122.68V123.56H1089.05V123.74C1089.05 124.407 1089.26 124.947 1089.67 125.36C1090.08 125.76 1090.69 125.96 1091.49 125.96C1092.1 125.96 1092.63 125.847 1093.07 125.62C1093.51 125.38 1093.89 125.067 1094.21 124.68L1095.81 126.42C1095.41 126.913 1094.85 127.34 1094.13 127.7C1093.41 128.06 1092.5 128.24 1091.39 128.24ZM1091.15 119.56C1090.51 119.56 1090 119.76 1089.61 120.16C1089.24 120.547 1089.05 121.073 1089.05 121.74V121.9H1093.21V121.74C1093.21 121.06 1093.02 120.527 1092.65 120.14C1092.29 119.753 1091.79 119.56 1091.15 119.56ZM1097.7 128V117.68H1100.08V119.2H1100.22C1100.38 118.72 1100.61 118.307 1100.9 117.96C1101.21 117.613 1101.63 117.44 1102.18 117.44C1103.18 117.44 1103.79 118.027 1104.02 119.2H1104.14C1104.22 118.96 1104.32 118.733 1104.44 118.52C1104.56 118.307 1104.71 118.12 1104.88 117.96C1105.05 117.8 1105.26 117.673 1105.5 117.58C1105.74 117.487 1106.02 117.44 1106.34 117.44C1107.78 117.44 1108.5 118.5 1108.5 120.62V128H1106.12V120.92C1106.12 120.44 1106.03 120.107 1105.86 119.92C1105.7 119.72 1105.49 119.62 1105.22 119.62C1104.97 119.62 1104.75 119.707 1104.56 119.88C1104.39 120.04 1104.3 120.293 1104.3 120.64V128H1101.9V120.92C1101.9 120.44 1101.82 120.107 1101.66 119.92C1101.51 119.72 1101.31 119.62 1101.04 119.62C1100.77 119.62 1100.55 119.707 1100.36 119.88C1100.17 120.04 1100.08 120.293 1100.08 120.64V128H1097.7ZM1115.37 128.24C1113.64 128.24 1112.33 127.76 1111.43 126.8C1110.54 125.84 1110.09 124.533 1110.09 122.88C1110.09 122.04 1110.21 121.287 1110.43 120.62C1110.67 119.94 1111.01 119.367 1111.43 118.9C1111.87 118.42 1112.4 118.06 1113.01 117.82C1113.64 117.567 1114.34 117.44 1115.11 117.44C1115.89 117.44 1116.58 117.567 1117.19 117.82C1117.81 118.06 1118.33 118.407 1118.75 118.86C1119.18 119.313 1119.51 119.867 1119.73 120.52C1119.97 121.16 1120.09 121.88 1120.09 122.68V123.56H1113.03V123.74C1113.03 124.407 1113.24 124.947 1113.65 125.36C1114.07 125.76 1114.67 125.96 1115.47 125.96C1116.09 125.96 1116.61 125.847 1117.05 125.62C1117.49 125.38 1117.87 125.067 1118.19 124.68L1119.79 126.42C1119.39 126.913 1118.83 127.34 1118.11 127.7C1117.39 128.06 1116.48 128.24 1115.37 128.24ZM1115.13 119.56C1114.49 119.56 1113.98 119.76 1113.59 120.16C1113.22 120.547 1113.03 121.073 1113.03 121.74V121.9H1117.19V121.74C1117.19 121.06 1117.01 120.527 1116.63 120.14C1116.27 119.753 1115.77 119.56 1115.13 119.56ZM1122.39 128V117.68H1125.35V119.56H1125.47C1125.59 119.267 1125.73 118.993 1125.91 118.74C1126.08 118.487 1126.29 118.267 1126.53 118.08C1126.78 117.88 1127.07 117.727 1127.39 117.62C1127.72 117.5 1128.09 117.44 1128.51 117.44C1129 117.44 1129.45 117.527 1129.87 117.7C1130.28 117.86 1130.63 118.107 1130.93 118.44C1131.22 118.773 1131.45 119.18 1131.61 119.66C1131.78 120.14 1131.87 120.693 1131.87 121.32V128H1128.91V121.72C1128.91 120.387 1128.33 119.72 1127.17 119.72C1126.94 119.72 1126.71 119.753 1126.49 119.82C1126.27 119.873 1126.08 119.967 1125.91 120.1C1125.73 120.22 1125.59 120.373 1125.49 120.56C1125.39 120.747 1125.35 120.967 1125.35 121.22V128H1122.39ZM1139.88 128C1138.81 128 1138.02 127.72 1137.5 127.16C1136.98 126.6 1136.72 125.887 1136.72 125.02V119.98H1133.92V117.68H1135.74C1136.18 117.68 1136.49 117.593 1136.68 117.42C1136.86 117.247 1136.96 116.927 1136.96 116.46V114.04H1139.68V117.68H1143.7V119.98H1139.68V125.7H1143.7V128H1139.88ZM1165.76 128L1164.88 124.64H1161.06L1160.2 128H1157.16L1160.94 114.04H1165.18L1168.96 128H1165.76ZM1163.06 116.94H1162.9L1161.54 122.22H1164.42L1163.06 116.94Z" fill="black"/>
<path d="M182.546 816V802.04H191.466V804.5H185.546V807.7H191.266V810.16H185.546V813.54H191.466V816H182.546ZM194.299 813.7H197.459V803.5H194.299V801.2H200.419V813.7H203.579V816H194.299V813.7ZM211.211 816.24C209.477 816.24 208.164 815.76 207.271 814.8C206.377 813.84 205.931 812.533 205.931 810.88C205.931 810.04 206.044 809.287 206.271 808.62C206.511 807.94 206.844 807.367 207.271 806.9C207.711 806.42 208.237 806.06 208.851 805.82C209.477 805.567 210.177 805.44 210.951 805.44C211.724 805.44 212.417 805.567 213.031 805.82C213.644 806.06 214.164 806.407 214.591 806.86C215.017 807.313 215.344 807.867 215.571 808.52C215.811 809.16 215.931 809.88 215.931 810.68V811.56H208.871V811.74C208.871 812.407 209.077 812.947 209.491 813.36C209.904 813.76 210.511 813.96 211.311 813.96C211.924 813.96 212.451 813.847 212.891 813.62C213.331 813.38 213.711 813.067 214.031 812.68L215.631 814.42C215.231 814.913 214.671 815.34 213.951 815.7C213.231 816.06 212.317 816.24 211.211 816.24ZM210.971 807.56C210.331 807.56 209.817 807.76 209.431 808.16C209.057 808.547 208.871 809.073 208.871 809.74V809.9H213.031V809.74C213.031 809.06 212.844 808.527 212.471 808.14C212.111 807.753 211.611 807.56 210.971 807.56ZM217.523 816V805.68H219.903V807.2H220.043C220.203 806.72 220.43 806.307 220.723 805.96C221.03 805.613 221.456 805.44 222.003 805.44C223.003 805.44 223.616 806.027 223.843 807.2H223.963C224.043 806.96 224.143 806.733 224.263 806.52C224.383 806.307 224.53 806.12 224.703 805.96C224.876 805.8 225.083 805.673 225.323 805.58C225.563 805.487 225.843 805.44 226.163 805.44C227.603 805.44 228.323 806.5 228.323 808.62V816H225.943V808.92C225.943 808.44 225.856 808.107 225.683 807.92C225.523 807.72 225.31 807.62 225.043 807.62C224.79 807.62 224.57 807.707 224.383 807.88C224.21 808.04 224.123 808.293 224.123 808.64V816H221.723V808.92C221.723 808.44 221.643 808.107 221.483 807.92C221.336 807.72 221.13 807.62 220.863 807.62C220.596 807.62 220.37 807.707 220.183 807.88C219.996 808.04 219.903 808.293 219.903 808.64V816H217.523ZM235.195 816.24C233.462 816.24 232.148 815.76 231.255 814.8C230.362 813.84 229.915 812.533 229.915 810.88C229.915 810.04 230.028 809.287 230.255 808.62C230.495 807.94 230.828 807.367 231.255 806.9C231.695 806.42 232.222 806.06 232.835 805.82C233.462 805.567 234.162 805.44 234.935 805.44C235.708 805.44 236.402 805.567 237.015 805.82C237.628 806.06 238.148 806.407 238.575 806.86C239.002 807.313 239.328 807.867 239.555 808.52C239.795 809.16 239.915 809.88 239.915 810.68V811.56H232.855V811.74C232.855 812.407 233.062 812.947 233.475 813.36C233.888 813.76 234.495 813.96 235.295 813.96C235.908 813.96 236.435 813.847 236.875 813.62C237.315 813.38 237.695 813.067 238.015 812.68L239.615 814.42C239.215 814.913 238.655 815.34 237.935 815.7C237.215 816.06 236.302 816.24 235.195 816.24ZM234.955 807.56C234.315 807.56 233.802 807.76 233.415 808.16C233.042 808.547 232.855 809.073 232.855 809.74V809.9H237.015V809.74C237.015 809.06 236.828 808.527 236.455 808.14C236.095 807.753 235.595 807.56 234.955 807.56ZM242.207 816V805.68H245.167V807.56H245.287C245.407 807.267 245.554 806.993 245.727 806.74C245.901 806.487 246.107 806.267 246.347 806.08C246.601 805.88 246.887 805.727 247.207 805.62C247.541 805.5 247.914 805.44 248.327 805.44C248.821 805.44 249.274 805.527 249.687 805.7C250.101 805.86 250.454 806.107 250.747 806.44C251.041 806.773 251.267 807.18 251.427 807.66C251.601 808.14 251.687 808.693 251.687 809.32V816H248.727V809.72C248.727 808.387 248.147 807.72 246.987 807.72C246.761 807.72 246.534 807.753 246.307 807.82C246.094 807.873 245.901 807.967 245.727 808.1C245.554 808.22 245.414 808.373 245.307 808.56C245.214 808.747 245.167 808.967 245.167 809.22V816H242.207ZM259.7 816C258.633 816 257.84 815.72 257.32 815.16C256.8 814.6 256.54 813.887 256.54 813.02V807.98H253.74V805.68H255.56C256 805.68 256.313 805.593 256.5 805.42C256.686 805.247 256.78 804.927 256.78 804.46V802.04H259.5V805.68H263.52V807.98H259.5V813.7H263.52V816H259.7ZM278.424 802.04H283.324C284.697 802.04 285.744 802.373 286.464 803.04C287.197 803.707 287.564 804.613 287.564 805.76C287.564 806.56 287.364 807.2 286.964 807.68C286.577 808.147 286.017 808.487 285.284 808.7V808.82C286.151 809.033 286.817 809.407 287.284 809.94C287.764 810.473 288.004 811.213 288.004 812.16C288.004 813.333 287.631 814.267 286.884 814.96C286.151 815.653 285.117 816 283.784 816H278.424V802.04ZM282.864 813.9C283.584 813.9 284.111 813.78 284.444 813.54C284.777 813.3 284.944 812.86 284.944 812.22V811.64C284.944 811 284.777 810.56 284.444 810.32C284.111 810.08 283.584 809.96 282.864 809.96H281.344V813.9H282.864ZM282.484 807.96C283.191 807.96 283.704 807.847 284.024 807.62C284.344 807.38 284.504 806.953 284.504 806.34V805.74C284.504 805.127 284.344 804.707 284.024 804.48C283.704 804.253 283.191 804.14 282.484 804.14H281.344V807.96H282.484Z" fill="black"/>
<path d="M1062.72 766V752.04H1071.64V754.5H1065.72V757.7H1071.44V760.16H1065.72V763.54H1071.64V766H1062.72ZM1074.48 763.7H1077.64V753.5H1074.48V751.2H1080.6V763.7H1083.76V766H1074.48V763.7ZM1091.39 766.24C1089.66 766.24 1088.34 765.76 1087.45 764.8C1086.56 763.84 1086.11 762.533 1086.11 760.88C1086.11 760.04 1086.22 759.287 1086.45 758.62C1086.69 757.94 1087.02 757.367 1087.45 756.9C1087.89 756.42 1088.42 756.06 1089.03 755.82C1089.66 755.567 1090.36 755.44 1091.13 755.44C1091.9 755.44 1092.6 755.567 1093.21 755.82C1093.82 756.06 1094.34 756.407 1094.77 756.86C1095.2 757.313 1095.52 757.867 1095.75 758.52C1095.99 759.16 1096.11 759.88 1096.11 760.68V761.56H1089.05V761.74C1089.05 762.407 1089.26 762.947 1089.67 763.36C1090.08 763.76 1090.69 763.96 1091.49 763.96C1092.1 763.96 1092.63 763.847 1093.07 763.62C1093.51 763.38 1093.89 763.067 1094.21 762.68L1095.81 764.42C1095.41 764.913 1094.85 765.34 1094.13 765.7C1093.41 766.06 1092.5 766.24 1091.39 766.24ZM1091.15 757.56C1090.51 757.56 1090 757.76 1089.61 758.16C1089.24 758.547 1089.05 759.073 1089.05 759.74V759.9H1093.21V759.74C1093.21 759.06 1093.02 758.527 1092.65 758.14C1092.29 757.753 1091.79 757.56 1091.15 757.56ZM1097.7 766V755.68H1100.08V757.2H1100.22C1100.38 756.72 1100.61 756.307 1100.9 755.96C1101.21 755.613 1101.63 755.44 1102.18 755.44C1103.18 755.44 1103.79 756.027 1104.02 757.2H1104.14C1104.22 756.96 1104.32 756.733 1104.44 756.52C1104.56 756.307 1104.71 756.12 1104.88 755.96C1105.05 755.8 1105.26 755.673 1105.5 755.58C1105.74 755.487 1106.02 755.44 1106.34 755.44C1107.78 755.44 1108.5 756.5 1108.5 758.62V766H1106.12V758.92C1106.12 758.44 1106.03 758.107 1105.86 757.92C1105.7 757.72 1105.49 757.62 1105.22 757.62C1104.97 757.62 1104.75 757.707 1104.56 757.88C1104.39 758.04 1104.3 758.293 1104.3 758.64V766H1101.9V758.92C1101.9 758.44 1101.82 758.107 1101.66 757.92C1101.51 757.72 1101.31 757.62 1101.04 757.62C1100.77 757.62 1100.55 757.707 1100.36 757.88C1100.17 758.04 1100.08 758.293 1100.08 758.64V766H1097.7ZM1115.37 766.24C1113.64 766.24 1112.33 765.76 1111.43 764.8C1110.54 763.84 1110.09 762.533 1110.09 760.88C1110.09 760.04 1110.21 759.287 1110.43 758.62C1110.67 757.94 1111.01 757.367 1111.43 756.9C1111.87 756.42 1112.4 756.06 1113.01 755.82C1113.64 755.567 1114.34 755.44 1115.11 755.44C1115.89 755.44 1116.58 755.567 1117.19 755.82C1117.81 756.06 1118.33 756.407 1118.75 756.86C1119.18 757.313 1119.51 757.867 1119.73 758.52C1119.97 759.16 1120.09 759.88 1120.09 760.68V761.56H1113.03V761.74C1113.03 762.407 1113.24 762.947 1113.65 763.36C1114.07 763.76 1114.67 763.96 1115.47 763.96C1116.09 763.96 1116.61 763.847 1117.05 763.62C1117.49 763.38 1117.87 763.067 1118.19 762.68L1119.79 764.42C1119.39 764.913 1118.83 765.34 1118.11 765.7C1117.39 766.06 1116.48 766.24 1115.37 766.24ZM1115.13 757.56C1114.49 757.56 1113.98 757.76 1113.59 758.16C1113.22 758.547 1113.03 759.073 1113.03 759.74V759.9H1117.19V759.74C1117.19 759.06 1117.01 758.527 1116.63 758.14C1116.27 757.753 1115.77 757.56 1115.13 757.56ZM1122.39 766V755.68H1125.35V757.56H1125.47C1125.59 757.267 1125.73 756.993 1125.91 756.74C1126.08 756.487 1126.29 756.267 1126.53 756.08C1126.78 755.88 1127.07 755.727 1127.39 755.62C1127.72 755.5 1128.09 755.44 1128.51 755.44C1129 755.44 1129.45 755.527 1129.87 755.7C1130.28 755.86 1130.63 756.107 1130.93 756.44C1131.22 756.773 1131.45 757.18 1131.61 757.66C1131.78 758.14 1131.87 758.693 1131.87 759.32V766H1128.91V759.72C1128.91 758.387 1128.33 757.72 1127.17 757.72C1126.94 757.72 1126.71 757.753 1126.49 757.82C1126.27 757.873 1126.08 757.967 1125.91 758.1C1125.73 758.22 1125.59 758.373 1125.49 758.56C1125.39 758.747 1125.35 758.967 1125.35 759.22V766H1122.39ZM1139.88 766C1138.81 766 1138.02 765.72 1137.5 765.16C1136.98 764.6 1136.72 763.887 1136.72 763.02V757.98H1133.92V755.68H1135.74C1136.18 755.68 1136.49 755.593 1136.68 755.42C1136.86 755.247 1136.96 754.927 1136.96 754.46V752.04H1139.68V755.68H1143.7V757.98H1139.68V763.7H1143.7V766H1139.88ZM1158.6 752.04H1163.5C1164.87 752.04 1165.92 752.373 1166.64 753.04C1167.37 753.707 1167.74 754.613 1167.74 755.76C1167.74 756.56 1167.54 757.2 1167.14 757.68C1166.75 758.147 1166.19 758.487 1165.46 758.7V758.82C1166.33 759.033 1166.99 759.407 1167.46 759.94C1167.94 760.473 1168.18 761.213 1168.18 762.16C1168.18 763.333 1167.81 764.267 1167.06 764.96C1166.33 765.653 1165.29 766 1163.96 766H1158.6V752.04ZM1163.04 763.9C1163.76 763.9 1164.29 763.78 1164.62 763.54C1164.95 763.3 1165.12 762.86 1165.12 762.22V761.64C1165.12 761 1164.95 760.56 1164.62 760.32C1164.29 760.08 1163.76 759.96 1163.04 759.96H1161.52V763.9H1163.04ZM1162.66 757.96C1163.37 757.96 1163.88 757.847 1164.2 757.62C1164.52 757.38 1164.68 756.953 1164.68 756.34V755.74C1164.68 755.127 1164.52 754.707 1164.2 754.48C1163.88 754.253 1163.37 754.14 1162.66 754.14H1161.52V757.96H1162.66Z" fill="black"/>
<path d="M177.854 391.32L177.914 387.12H177.754L174.954 394.3L172.154 387.12H171.994L172.054 391.32V398H170.074V384.04H172.814L174.954 389.58H175.094L177.254 384.04H179.834V398H177.854V391.32ZM190.786 398C190.16 398 189.686 397.84 189.366 397.52C189.06 397.2 188.873 396.78 188.806 396.26H188.706C188.506 396.887 188.14 397.373 187.606 397.72C187.086 398.067 186.42 398.24 185.606 398.24C184.553 398.24 183.713 397.967 183.086 397.42C182.46 396.86 182.146 396.093 182.146 395.12C182.146 394.12 182.513 393.36 183.246 392.84C183.993 392.307 185.133 392.04 186.666 392.04H188.646V391.24C188.646 389.84 187.906 389.14 186.426 389.14C185.76 389.14 185.22 389.273 184.806 389.54C184.393 389.793 184.046 390.133 183.766 390.56L182.466 389.5C182.76 388.94 183.253 388.46 183.946 388.06C184.64 387.647 185.533 387.44 186.626 387.44C187.933 387.44 188.96 387.753 189.706 388.38C190.453 389.007 190.826 389.913 190.826 391.1V396.28H192.126V398H190.786ZM186.226 396.64C186.933 396.64 187.513 396.48 187.966 396.16C188.42 395.84 188.646 395.427 188.646 394.92V393.42H186.706C185.133 393.42 184.346 393.893 184.346 394.84V395.24C184.346 395.707 184.513 396.06 184.846 396.3C185.18 396.527 185.64 396.64 186.226 396.64ZM194.459 396.24H197.199V389.44H194.459V387.68H199.379V390.42H199.499C199.592 390.06 199.725 389.713 199.899 389.38C200.072 389.047 200.292 388.76 200.559 388.52C200.825 388.267 201.152 388.067 201.539 387.92C201.925 387.76 202.379 387.68 202.899 387.68H204.139V389.76H202.099C201.299 389.76 200.645 390 200.139 390.48C199.632 390.947 199.379 391.58 199.379 392.38V396.24H203.119V398H194.459V396.24ZM216.331 399.12C216.331 400.187 215.884 400.973 214.991 401.48C214.097 401.987 212.737 402.24 210.911 402.24C210.017 402.24 209.264 402.18 208.651 402.06C208.051 401.953 207.557 401.793 207.171 401.58C206.797 401.367 206.524 401.107 206.351 400.8C206.191 400.493 206.111 400.147 206.111 399.76C206.111 399.2 206.264 398.76 206.571 398.44C206.891 398.133 207.337 397.907 207.911 397.76V397.56C207.564 397.427 207.284 397.24 207.071 397C206.871 396.76 206.771 396.447 206.771 396.06C206.771 395.553 206.944 395.173 207.291 394.92C207.637 394.653 208.084 394.453 208.631 394.32V394.22C208.004 393.927 207.517 393.513 207.171 392.98C206.824 392.447 206.651 391.807 206.651 391.06C206.651 390.513 206.751 390.02 206.951 389.58C207.151 389.127 207.431 388.747 207.791 388.44C208.164 388.12 208.604 387.873 209.111 387.7C209.631 387.527 210.211 387.44 210.851 387.44C211.571 387.44 212.217 387.553 212.791 387.78V387.44C212.791 387.04 212.904 386.707 213.131 386.44C213.357 386.173 213.704 386.04 214.171 386.04H216.051V387.76H213.651V388.24C214.104 388.547 214.451 388.94 214.691 389.42C214.931 389.887 215.051 390.433 215.051 391.06C215.051 391.607 214.951 392.107 214.751 392.56C214.551 393 214.264 393.38 213.891 393.7C213.531 394.007 213.091 394.247 212.571 394.42C212.064 394.58 211.491 394.66 210.851 394.66C210.397 394.66 209.971 394.62 209.571 394.54C209.331 394.607 209.091 394.72 208.851 394.88C208.611 395.04 208.491 395.26 208.491 395.54C208.491 395.86 208.644 396.06 208.951 396.14C209.257 396.22 209.637 396.26 210.091 396.26H212.411C213.797 396.26 214.797 396.527 215.411 397.06C216.024 397.58 216.331 398.267 216.331 399.12ZM214.291 399.26C214.291 398.913 214.151 398.633 213.871 398.42C213.591 398.22 213.084 398.12 212.351 398.12H208.771C208.264 398.36 208.011 398.747 208.011 399.28C208.011 399.667 208.171 400 208.491 400.28C208.824 400.56 209.371 400.7 210.131 400.7H211.751C212.577 400.7 213.204 400.573 213.631 400.32C214.071 400.08 214.291 399.727 214.291 399.26ZM210.851 393.16C211.557 393.16 212.077 392.993 212.411 392.66C212.744 392.327 212.911 391.88 212.911 391.32V390.78C212.911 390.22 212.744 389.773 212.411 389.44C212.077 389.107 211.557 388.94 210.851 388.94C210.144 388.94 209.624 389.107 209.291 389.44C208.957 389.773 208.791 390.22 208.791 390.78V391.32C208.791 391.88 208.957 392.327 209.291 392.66C209.624 392.993 210.144 393.16 210.851 393.16ZM223.563 385.8C223.003 385.8 222.61 385.687 222.383 385.46C222.17 385.233 222.063 384.953 222.063 384.62V384.2C222.063 383.867 222.17 383.587 222.383 383.36C222.61 383.133 222.996 383.02 223.543 383.02C224.103 383.02 224.49 383.133 224.703 383.36C224.93 383.587 225.043 383.867 225.043 384.2V384.62C225.043 384.953 224.93 385.233 224.703 385.46C224.49 385.687 224.11 385.8 223.563 385.8ZM218.943 396.24H222.463V389.44H218.943V387.68H224.643V396.24H227.943V398H218.943V396.24ZM230.595 398V387.68H232.775V389.44H232.875C232.982 389.173 233.115 388.92 233.275 388.68C233.448 388.427 233.655 388.213 233.895 388.04C234.135 387.853 234.415 387.707 234.735 387.6C235.055 387.493 235.428 387.44 235.855 387.44C236.895 387.44 237.735 387.78 238.375 388.46C239.015 389.14 239.335 390.107 239.335 391.36V398H237.155V391.68C237.155 390.04 236.442 389.22 235.015 389.22C234.735 389.22 234.462 389.26 234.195 389.34C233.928 389.407 233.688 389.513 233.475 389.66C233.262 389.807 233.088 389.993 232.955 390.22C232.835 390.447 232.775 390.707 232.775 391V398H230.595ZM263.12 385.98H256.78L256.42 390.94H256.58C256.9 390.393 257.286 389.96 257.74 389.64C258.193 389.307 258.813 389.14 259.6 389.14C260.2 389.14 260.753 389.24 261.26 389.44C261.78 389.64 262.226 389.927 262.6 390.3C262.986 390.673 263.286 391.133 263.5 391.68C263.726 392.213 263.84 392.82 263.84 393.5C263.84 394.193 263.726 394.833 263.5 395.42C263.273 395.993 262.946 396.493 262.52 396.92C262.093 397.333 261.566 397.66 260.94 397.9C260.313 398.127 259.6 398.24 258.8 398.24C258.173 398.24 257.613 398.167 257.12 398.02C256.64 397.887 256.206 397.707 255.82 397.48C255.446 397.24 255.12 396.973 254.84 396.68C254.56 396.373 254.313 396.06 254.1 395.74L255.74 394.46C255.913 394.727 256.093 394.98 256.28 395.22C256.48 395.447 256.7 395.647 256.94 395.82C257.18 395.993 257.453 396.127 257.76 396.22C258.08 396.313 258.44 396.36 258.84 396.36C259.706 396.36 260.366 396.127 260.82 395.66C261.273 395.18 261.5 394.533 261.5 393.72V393.56C261.5 392.747 261.266 392.113 260.8 391.66C260.346 391.207 259.693 390.98 258.84 390.98C258.213 390.98 257.72 391.093 257.36 391.32C257 391.547 256.686 391.8 256.42 392.08L254.56 391.82L255.08 384.04H263.12V385.98ZM270.892 398.24C270.012 398.24 269.245 398.08 268.592 397.76C267.952 397.427 267.418 396.953 266.992 396.34C266.578 395.727 266.272 394.973 266.072 394.08C265.872 393.187 265.772 392.167 265.772 391.02C265.772 389.887 265.872 388.873 266.072 387.98C266.272 387.073 266.578 386.313 266.992 385.7C267.418 385.087 267.952 384.62 268.592 384.3C269.245 383.967 270.012 383.8 270.892 383.8C271.772 383.8 272.532 383.967 273.172 384.3C273.825 384.62 274.358 385.087 274.772 385.7C275.198 386.313 275.512 387.073 275.712 387.98C275.912 388.873 276.012 389.887 276.012 391.02C276.012 392.167 275.912 393.187 275.712 394.08C275.512 394.973 275.198 395.727 274.772 396.34C274.358 396.953 273.825 397.427 273.172 397.76C272.532 398.08 271.772 398.24 270.892 398.24ZM270.892 396.4C271.905 396.4 272.625 396.027 273.052 395.28C273.492 394.52 273.712 393.5 273.712 392.22V389.82C273.712 388.54 273.492 387.527 273.052 386.78C272.625 386.02 271.905 385.64 270.892 385.64C270.385 385.64 269.952 385.74 269.592 385.94C269.232 386.127 268.938 386.407 268.712 386.78C268.485 387.14 268.318 387.58 268.212 388.1C268.118 388.607 268.072 389.18 268.072 389.82V392.22C268.072 392.86 268.118 393.44 268.212 393.96C268.318 394.467 268.485 394.907 268.712 395.28C268.938 395.64 269.232 395.92 269.592 396.12C269.952 396.307 270.385 396.4 270.892 396.4ZM270.892 392.2C270.425 392.2 270.098 392.107 269.912 391.92C269.738 391.733 269.652 391.507 269.652 391.24V390.8C269.652 390.533 269.738 390.307 269.912 390.12C270.098 389.933 270.425 389.84 270.892 389.84C271.358 389.84 271.678 389.933 271.852 390.12C272.038 390.307 272.132 390.533 272.132 390.8V391.24C272.132 391.507 272.038 391.733 271.852 391.92C271.678 392.107 271.358 392.2 270.892 392.2ZM278.464 387.68H280.644V389.44H280.764C281.071 388.813 281.477 388.327 281.984 387.98C282.491 387.62 283.124 387.44 283.884 387.44C285.097 387.44 286.064 387.893 286.784 388.8C287.504 389.707 287.864 391.053 287.864 392.84C287.864 394.627 287.504 395.973 286.784 396.88C286.064 397.787 285.097 398.24 283.884 398.24C283.124 398.24 282.491 398.067 281.984 397.72C281.477 397.36 281.071 396.867 280.764 396.24H280.644V402H278.464V387.68ZM282.984 396.46C283.811 396.46 284.444 396.207 284.884 395.7C285.337 395.193 285.564 394.52 285.564 393.68V392C285.564 391.16 285.337 390.487 284.884 389.98C284.444 389.473 283.811 389.22 282.984 389.22C282.664 389.22 282.364 389.26 282.084 389.34C281.804 389.42 281.557 389.54 281.344 389.7C281.131 389.86 280.957 390.06 280.824 390.3C280.704 390.527 280.644 390.8 280.644 391.12V394.56C280.644 394.88 280.704 395.16 280.824 395.4C280.957 395.627 281.131 395.82 281.344 395.98C281.557 396.14 281.804 396.26 282.084 396.34C282.364 396.42 282.664 396.46 282.984 396.46ZM289.776 398L293.616 392.76L289.936 387.68H292.476L293.836 389.64L294.916 391.2H295.036L296.096 389.64L297.456 387.68H299.816L296.116 392.68L299.996 398H297.436L295.896 395.78L294.836 394.26H294.716L293.676 395.78L292.156 398H289.776Z" fill="black"/>
<path d="M177.854 490.32L177.914 486.12H177.754L174.954 493.3L172.154 486.12H171.994L172.054 490.32V497H170.074V483.04H172.814L174.954 488.58H175.094L177.254 483.04H179.834V497H177.854V490.32ZM190.786 497C190.16 497 189.686 496.84 189.366 496.52C189.06 496.2 188.873 495.78 188.806 495.26H188.706C188.506 495.887 188.14 496.373 187.606 496.72C187.086 497.067 186.42 497.24 185.606 497.24C184.553 497.24 183.713 496.967 183.086 496.42C182.46 495.86 182.146 495.093 182.146 494.12C182.146 493.12 182.513 492.36 183.246 491.84C183.993 491.307 185.133 491.04 186.666 491.04H188.646V490.24C188.646 488.84 187.906 488.14 186.426 488.14C185.76 488.14 185.22 488.273 184.806 488.54C184.393 488.793 184.046 489.133 183.766 489.56L182.466 488.5C182.76 487.94 183.253 487.46 183.946 487.06C184.64 486.647 185.533 486.44 186.626 486.44C187.933 486.44 188.96 486.753 189.706 487.38C190.453 488.007 190.826 488.913 190.826 490.1V495.28H192.126V497H190.786ZM186.226 495.64C186.933 495.64 187.513 495.48 187.966 495.16C188.42 494.84 188.646 494.427 188.646 493.92V492.42H186.706C185.133 492.42 184.346 492.893 184.346 493.84V494.24C184.346 494.707 184.513 495.06 184.846 495.3C185.18 495.527 185.64 495.64 186.226 495.64ZM194.459 495.24H197.199V488.44H194.459V486.68H199.379V489.42H199.499C199.592 489.06 199.725 488.713 199.899 488.38C200.072 488.047 200.292 487.76 200.559 487.52C200.825 487.267 201.152 487.067 201.539 486.92C201.925 486.76 202.379 486.68 202.899 486.68H204.139V488.76H202.099C201.299 488.76 200.645 489 200.139 489.48C199.632 489.947 199.379 490.58 199.379 491.38V495.24H203.119V497H194.459V495.24ZM216.331 498.12C216.331 499.187 215.884 499.973 214.991 500.48C214.097 500.987 212.737 501.24 210.911 501.24C210.017 501.24 209.264 501.18 208.651 501.06C208.051 500.953 207.557 500.793 207.171 500.58C206.797 500.367 206.524 500.107 206.351 499.8C206.191 499.493 206.111 499.147 206.111 498.76C206.111 498.2 206.264 497.76 206.571 497.44C206.891 497.133 207.337 496.907 207.911 496.76V496.56C207.564 496.427 207.284 496.24 207.071 496C206.871 495.76 206.771 495.447 206.771 495.06C206.771 494.553 206.944 494.173 207.291 493.92C207.637 493.653 208.084 493.453 208.631 493.32V493.22C208.004 492.927 207.517 492.513 207.171 491.98C206.824 491.447 206.651 490.807 206.651 490.06C206.651 489.513 206.751 489.02 206.951 488.58C207.151 488.127 207.431 487.747 207.791 487.44C208.164 487.12 208.604 486.873 209.111 486.7C209.631 486.527 210.211 486.44 210.851 486.44C211.571 486.44 212.217 486.553 212.791 486.78V486.44C212.791 486.04 212.904 485.707 213.131 485.44C213.357 485.173 213.704 485.04 214.171 485.04H216.051V486.76H213.651V487.24C214.104 487.547 214.451 487.94 214.691 488.42C214.931 488.887 215.051 489.433 215.051 490.06C215.051 490.607 214.951 491.107 214.751 491.56C214.551 492 214.264 492.38 213.891 492.7C213.531 493.007 213.091 493.247 212.571 493.42C212.064 493.58 211.491 493.66 210.851 493.66C210.397 493.66 209.971 493.62 209.571 493.54C209.331 493.607 209.091 493.72 208.851 493.88C208.611 494.04 208.491 494.26 208.491 494.54C208.491 494.86 208.644 495.06 208.951 495.14C209.257 495.22 209.637 495.26 210.091 495.26H212.411C213.797 495.26 214.797 495.527 215.411 496.06C216.024 496.58 216.331 497.267 216.331 498.12ZM214.291 498.26C214.291 497.913 214.151 497.633 213.871 497.42C213.591 497.22 213.084 497.12 212.351 497.12H208.771C208.264 497.36 208.011 497.747 208.011 498.28C208.011 498.667 208.171 499 208.491 499.28C208.824 499.56 209.371 499.7 210.131 499.7H211.751C212.577 499.7 213.204 499.573 213.631 499.32C214.071 499.08 214.291 498.727 214.291 498.26ZM210.851 492.16C211.557 492.16 212.077 491.993 212.411 491.66C212.744 491.327 212.911 490.88 212.911 490.32V489.78C212.911 489.22 212.744 488.773 212.411 488.44C212.077 488.107 211.557 487.94 210.851 487.94C210.144 487.94 209.624 488.107 209.291 488.44C208.957 488.773 208.791 489.22 208.791 489.78V490.32C208.791 490.88 208.957 491.327 209.291 491.66C209.624 491.993 210.144 492.16 210.851 492.16ZM223.563 484.8C223.003 484.8 222.61 484.687 222.383 484.46C222.17 484.233 222.063 483.953 222.063 483.62V483.2C222.063 482.867 222.17 482.587 222.383 482.36C222.61 482.133 222.996 482.02 223.543 482.02C224.103 482.02 224.49 482.133 224.703 482.36C224.93 482.587 225.043 482.867 225.043 483.2V483.62C225.043 483.953 224.93 484.233 224.703 484.46C224.49 484.687 224.11 484.8 223.563 484.8ZM218.943 495.24H222.463V488.44H218.943V486.68H224.643V495.24H227.943V497H218.943V495.24ZM230.595 497V486.68H232.775V488.44H232.875C232.982 488.173 233.115 487.92 233.275 487.68C233.448 487.427 233.655 487.213 233.895 487.04C234.135 486.853 234.415 486.707 234.735 486.6C235.055 486.493 235.428 486.44 235.855 486.44C236.895 486.44 237.735 486.78 238.375 487.46C239.015 488.14 239.335 489.107 239.335 490.36V497H237.155V490.68C237.155 489.04 236.442 488.22 235.015 488.22C234.735 488.22 234.462 488.26 234.195 488.34C233.928 488.407 233.688 488.513 233.475 488.66C233.262 488.807 233.088 488.993 232.955 489.22C232.835 489.447 232.775 489.707 232.775 490V497H230.595ZM263.12 484.98H256.78L256.42 489.94H256.58C256.9 489.393 257.286 488.96 257.74 488.64C258.193 488.307 258.813 488.14 259.6 488.14C260.2 488.14 260.753 488.24 261.26 488.44C261.78 488.64 262.226 488.927 262.6 489.3C262.986 489.673 263.286 490.133 263.5 490.68C263.726 491.213 263.84 491.82 263.84 492.5C263.84 493.193 263.726 493.833 263.5 494.42C263.273 494.993 262.946 495.493 262.52 495.92C262.093 496.333 261.566 496.66 260.94 496.9C260.313 497.127 259.6 497.24 258.8 497.24C258.173 497.24 257.613 497.167 257.12 497.02C256.64 496.887 256.206 496.707 255.82 496.48C255.446 496.24 255.12 495.973 254.84 495.68C254.56 495.373 254.313 495.06 254.1 494.74L255.74 493.46C255.913 493.727 256.093 493.98 256.28 494.22C256.48 494.447 256.7 494.647 256.94 494.82C257.18 494.993 257.453 495.127 257.76 495.22C258.08 495.313 258.44 495.36 258.84 495.36C259.706 495.36 260.366 495.127 260.82 494.66C261.273 494.18 261.5 493.533 261.5 492.72V492.56C261.5 491.747 261.266 491.113 260.8 490.66C260.346 490.207 259.693 489.98 258.84 489.98C258.213 489.98 257.72 490.093 257.36 490.32C257 490.547 256.686 490.8 256.42 491.08L254.56 490.82L255.08 483.04H263.12V484.98ZM270.892 497.24C270.012 497.24 269.245 497.08 268.592 496.76C267.952 496.427 267.418 495.953 266.992 495.34C266.578 494.727 266.272 493.973 266.072 493.08C265.872 492.187 265.772 491.167 265.772 490.02C265.772 488.887 265.872 487.873 266.072 486.98C266.272 486.073 266.578 485.313 266.992 484.7C267.418 484.087 267.952 483.62 268.592 483.3C269.245 482.967 270.012 482.8 270.892 482.8C271.772 482.8 272.532 482.967 273.172 483.3C273.825 483.62 274.358 484.087 274.772 484.7C275.198 485.313 275.512 486.073 275.712 486.98C275.912 487.873 276.012 488.887 276.012 490.02C276.012 491.167 275.912 492.187 275.712 493.08C275.512 493.973 275.198 494.727 274.772 495.34C274.358 495.953 273.825 496.427 273.172 496.76C272.532 497.08 271.772 497.24 270.892 497.24ZM270.892 495.4C271.905 495.4 272.625 495.027 273.052 494.28C273.492 493.52 273.712 492.5 273.712 491.22V488.82C273.712 487.54 273.492 486.527 273.052 485.78C272.625 485.02 271.905 484.64 270.892 484.64C270.385 484.64 269.952 484.74 269.592 484.94C269.232 485.127 268.938 485.407 268.712 485.78C268.485 486.14 268.318 486.58 268.212 487.1C268.118 487.607 268.072 488.18 268.072 488.82V491.22C268.072 491.86 268.118 492.44 268.212 492.96C268.318 493.467 268.485 493.907 268.712 494.28C268.938 494.64 269.232 494.92 269.592 495.12C269.952 495.307 270.385 495.4 270.892 495.4ZM270.892 491.2C270.425 491.2 270.098 491.107 269.912 490.92C269.738 490.733 269.652 490.507 269.652 490.24V489.8C269.652 489.533 269.738 489.307 269.912 489.12C270.098 488.933 270.425 488.84 270.892 488.84C271.358 488.84 271.678 488.933 271.852 489.12C272.038 489.307 272.132 489.533 272.132 489.8V490.24C272.132 490.507 272.038 490.733 271.852 490.92C271.678 491.107 271.358 491.2 270.892 491.2ZM278.464 486.68H280.644V488.44H280.764C281.071 487.813 281.477 487.327 281.984 486.98C282.491 486.62 283.124 486.44 283.884 486.44C285.097 486.44 286.064 486.893 286.784 487.8C287.504 488.707 287.864 490.053 287.864 491.84C287.864 493.627 287.504 494.973 286.784 495.88C286.064 496.787 285.097 497.24 283.884 497.24C283.124 497.24 282.491 497.067 281.984 496.72C281.477 496.36 281.071 495.867 280.764 495.24H280.644V501H278.464V486.68ZM282.984 495.46C283.811 495.46 284.444 495.207 284.884 494.7C285.337 494.193 285.564 493.52 285.564 492.68V491C285.564 490.16 285.337 489.487 284.884 488.98C284.444 488.473 283.811 488.22 282.984 488.22C282.664 488.22 282.364 488.26 282.084 488.34C281.804 488.42 281.557 488.54 281.344 488.7C281.131 488.86 280.957 489.06 280.824 489.3C280.704 489.527 280.644 489.8 280.644 490.12V493.56C280.644 493.88 280.704 494.16 280.824 494.4C280.957 494.627 281.131 494.82 281.344 494.98C281.557 495.14 281.804 495.26 282.084 495.34C282.364 495.42 282.664 495.46 282.984 495.46ZM289.776 497L293.616 491.76L289.936 486.68H292.476L293.836 488.64L294.916 490.2H295.036L296.096 488.64L297.456 486.68H299.816L296.116 491.68L299.996 497H297.436L295.896 494.78L294.836 493.26H294.716L293.676 494.78L292.156 497H289.776Z" fill="black"/>
<path d="M1057.85 440.32L1057.91 436.12H1057.75L1054.95 443.3L1052.15 436.12H1051.99L1052.05 440.32V447H1050.07V433.04H1052.81L1054.95 438.58H1055.09L1057.25 433.04H1059.83V447H1057.85V440.32ZM1070.79 447C1070.16 447 1069.69 446.84 1069.37 446.52C1069.06 446.2 1068.87 445.78 1068.81 445.26H1068.71C1068.51 445.887 1068.14 446.373 1067.61 446.72C1067.09 447.067 1066.42 447.24 1065.61 447.24C1064.55 447.24 1063.71 446.967 1063.09 446.42C1062.46 445.86 1062.15 445.093 1062.15 444.12C1062.15 443.12 1062.51 442.36 1063.25 441.84C1063.99 441.307 1065.13 441.04 1066.67 441.04H1068.65V440.24C1068.65 438.84 1067.91 438.14 1066.43 438.14C1065.76 438.14 1065.22 438.273 1064.81 438.54C1064.39 438.793 1064.05 439.133 1063.77 439.56L1062.47 438.5C1062.76 437.94 1063.25 437.46 1063.95 437.06C1064.64 436.647 1065.53 436.44 1066.63 436.44C1067.93 436.44 1068.96 436.753 1069.71 437.38C1070.45 438.007 1070.83 438.913 1070.83 440.1V445.28H1072.13V447H1070.79ZM1066.23 445.64C1066.93 445.64 1067.51 445.48 1067.97 445.16C1068.42 444.84 1068.65 444.427 1068.65 443.92V442.42H1066.71C1065.13 442.42 1064.35 442.893 1064.35 443.84V444.24C1064.35 444.707 1064.51 445.06 1064.85 445.3C1065.18 445.527 1065.64 445.64 1066.23 445.64ZM1074.46 445.24H1077.2V438.44H1074.46V436.68H1079.38V439.42H1079.5C1079.59 439.06 1079.73 438.713 1079.9 438.38C1080.07 438.047 1080.29 437.76 1080.56 437.52C1080.83 437.267 1081.15 437.067 1081.54 436.92C1081.93 436.76 1082.38 436.68 1082.9 436.68H1084.14V438.76H1082.1C1081.3 438.76 1080.65 439 1080.14 439.48C1079.63 439.947 1079.38 440.58 1079.38 441.38V445.24H1083.12V447H1074.46V445.24ZM1096.33 448.12C1096.33 449.187 1095.88 449.973 1094.99 450.48C1094.1 450.987 1092.74 451.24 1090.91 451.24C1090.02 451.24 1089.26 451.18 1088.65 451.06C1088.05 450.953 1087.56 450.793 1087.17 450.58C1086.8 450.367 1086.52 450.107 1086.35 449.8C1086.19 449.493 1086.11 449.147 1086.11 448.76C1086.11 448.2 1086.26 447.76 1086.57 447.44C1086.89 447.133 1087.34 446.907 1087.91 446.76V446.56C1087.56 446.427 1087.28 446.24 1087.07 446C1086.87 445.76 1086.77 445.447 1086.77 445.06C1086.77 444.553 1086.94 444.173 1087.29 443.92C1087.64 443.653 1088.08 443.453 1088.63 443.32V443.22C1088 442.927 1087.52 442.513 1087.17 441.98C1086.82 441.447 1086.65 440.807 1086.65 440.06C1086.65 439.513 1086.75 439.02 1086.95 438.58C1087.15 438.127 1087.43 437.747 1087.79 437.44C1088.16 437.12 1088.6 436.873 1089.11 436.7C1089.63 436.527 1090.21 436.44 1090.85 436.44C1091.57 436.44 1092.22 436.553 1092.79 436.78V436.44C1092.79 436.04 1092.9 435.707 1093.13 435.44C1093.36 435.173 1093.7 435.04 1094.17 435.04H1096.05V436.76H1093.65V437.24C1094.1 437.547 1094.45 437.94 1094.69 438.42C1094.93 438.887 1095.05 439.433 1095.05 440.06C1095.05 440.607 1094.95 441.107 1094.75 441.56C1094.55 442 1094.26 442.38 1093.89 442.7C1093.53 443.007 1093.09 443.247 1092.57 443.42C1092.06 443.58 1091.49 443.66 1090.85 443.66C1090.4 443.66 1089.97 443.62 1089.57 443.54C1089.33 443.607 1089.09 443.72 1088.85 443.88C1088.61 444.04 1088.49 444.26 1088.49 444.54C1088.49 444.86 1088.64 445.06 1088.95 445.14C1089.26 445.22 1089.64 445.26 1090.09 445.26H1092.41C1093.8 445.26 1094.8 445.527 1095.41 446.06C1096.02 446.58 1096.33 447.267 1096.33 448.12ZM1094.29 448.26C1094.29 447.913 1094.15 447.633 1093.87 447.42C1093.59 447.22 1093.08 447.12 1092.35 447.12H1088.77C1088.26 447.36 1088.01 447.747 1088.01 448.28C1088.01 448.667 1088.17 449 1088.49 449.28C1088.82 449.56 1089.37 449.7 1090.13 449.7H1091.75C1092.58 449.7 1093.2 449.573 1093.63 449.32C1094.07 449.08 1094.29 448.727 1094.29 448.26ZM1090.85 442.16C1091.56 442.16 1092.08 441.993 1092.41 441.66C1092.74 441.327 1092.91 440.88 1092.91 440.32V439.78C1092.91 439.22 1092.74 438.773 1092.41 438.44C1092.08 438.107 1091.56 437.94 1090.85 437.94C1090.14 437.94 1089.62 438.107 1089.29 438.44C1088.96 438.773 1088.79 439.22 1088.79 439.78V440.32C1088.79 440.88 1088.96 441.327 1089.29 441.66C1089.62 441.993 1090.14 442.16 1090.85 442.16ZM1103.56 434.8C1103 434.8 1102.61 434.687 1102.38 434.46C1102.17 434.233 1102.06 433.953 1102.06 433.62V433.2C1102.06 432.867 1102.17 432.587 1102.38 432.36C1102.61 432.133 1103 432.02 1103.54 432.02C1104.1 432.02 1104.49 432.133 1104.7 432.36C1104.93 432.587 1105.04 432.867 1105.04 433.2V433.62C1105.04 433.953 1104.93 434.233 1104.7 434.46C1104.49 434.687 1104.11 434.8 1103.56 434.8ZM1098.94 445.24H1102.46V438.44H1098.94V436.68H1104.64V445.24H1107.94V447H1098.94V445.24ZM1110.6 447V436.68H1112.78V438.44H1112.88C1112.98 438.173 1113.12 437.92 1113.28 437.68C1113.45 437.427 1113.66 437.213 1113.9 437.04C1114.14 436.853 1114.42 436.707 1114.74 436.6C1115.06 436.493 1115.43 436.44 1115.86 436.44C1116.9 436.44 1117.74 436.78 1118.38 437.46C1119.02 438.14 1119.34 439.107 1119.34 440.36V447H1117.16V440.68C1117.16 439.04 1116.44 438.22 1115.02 438.22C1114.74 438.22 1114.46 438.26 1114.2 438.34C1113.93 438.407 1113.69 438.513 1113.48 438.66C1113.26 438.807 1113.09 438.993 1112.96 439.22C1112.84 439.447 1112.78 439.707 1112.78 440V447H1110.6ZM1143.12 434.98H1136.78L1136.42 439.94H1136.58C1136.9 439.393 1137.29 438.96 1137.74 438.64C1138.19 438.307 1138.81 438.14 1139.6 438.14C1140.2 438.14 1140.75 438.24 1141.26 438.44C1141.78 438.64 1142.23 438.927 1142.6 439.3C1142.99 439.673 1143.29 440.133 1143.5 440.68C1143.73 441.213 1143.84 441.82 1143.84 442.5C1143.84 443.193 1143.73 443.833 1143.5 444.42C1143.27 444.993 1142.95 445.493 1142.52 445.92C1142.09 446.333 1141.57 446.66 1140.94 446.9C1140.31 447.127 1139.6 447.24 1138.8 447.24C1138.17 447.24 1137.61 447.167 1137.12 447.02C1136.64 446.887 1136.21 446.707 1135.82 446.48C1135.45 446.24 1135.12 445.973 1134.84 445.68C1134.56 445.373 1134.31 445.06 1134.1 444.74L1135.74 443.46C1135.91 443.727 1136.09 443.98 1136.28 444.22C1136.48 444.447 1136.7 444.647 1136.94 444.82C1137.18 444.993 1137.45 445.127 1137.76 445.22C1138.08 445.313 1138.44 445.36 1138.84 445.36C1139.71 445.36 1140.37 445.127 1140.82 444.66C1141.27 444.18 1141.5 443.533 1141.5 442.72V442.56C1141.5 441.747 1141.27 441.113 1140.8 440.66C1140.35 440.207 1139.69 439.98 1138.84 439.98C1138.21 439.98 1137.72 440.093 1137.36 440.32C1137 440.547 1136.69 440.8 1136.42 441.08L1134.56 440.82L1135.08 433.04H1143.12V434.98ZM1150.89 447.24C1150.01 447.24 1149.25 447.08 1148.59 446.76C1147.95 446.427 1147.42 445.953 1146.99 445.34C1146.58 444.727 1146.27 443.973 1146.07 443.08C1145.87 442.187 1145.77 441.167 1145.77 440.02C1145.77 438.887 1145.87 437.873 1146.07 436.98C1146.27 436.073 1146.58 435.313 1146.99 434.7C1147.42 434.087 1147.95 433.62 1148.59 433.3C1149.25 432.967 1150.01 432.8 1150.89 432.8C1151.77 432.8 1152.53 432.967 1153.17 433.3C1153.83 433.62 1154.36 434.087 1154.77 434.7C1155.2 435.313 1155.51 436.073 1155.71 436.98C1155.91 437.873 1156.01 438.887 1156.01 440.02C1156.01 441.167 1155.91 442.187 1155.71 443.08C1155.51 443.973 1155.2 444.727 1154.77 445.34C1154.36 445.953 1153.83 446.427 1153.17 446.76C1152.53 447.08 1151.77 447.24 1150.89 447.24ZM1150.89 445.4C1151.91 445.4 1152.63 445.027 1153.05 444.28C1153.49 443.52 1153.71 442.5 1153.71 441.22V438.82C1153.71 437.54 1153.49 436.527 1153.05 435.78C1152.63 435.02 1151.91 434.64 1150.89 434.64C1150.39 434.64 1149.95 434.74 1149.59 434.94C1149.23 435.127 1148.94 435.407 1148.71 435.78C1148.49 436.14 1148.32 436.58 1148.21 437.1C1148.12 437.607 1148.07 438.18 1148.07 438.82V441.22C1148.07 441.86 1148.12 442.44 1148.21 442.96C1148.32 443.467 1148.49 443.907 1148.71 444.28C1148.94 444.64 1149.23 444.92 1149.59 445.12C1149.95 445.307 1150.39 445.4 1150.89 445.4ZM1150.89 441.2C1150.43 441.2 1150.1 441.107 1149.91 440.92C1149.74 440.733 1149.65 440.507 1149.65 440.24V439.8C1149.65 439.533 1149.74 439.307 1149.91 439.12C1150.1 438.933 1150.43 438.84 1150.89 438.84C1151.36 438.84 1151.68 438.933 1151.85 439.12C1152.04 439.307 1152.13 439.533 1152.13 439.8V440.24C1152.13 440.507 1152.04 440.733 1151.85 440.92C1151.68 441.107 1151.36 441.2 1150.89 441.2ZM1158.46 436.68H1160.64V438.44H1160.76C1161.07 437.813 1161.48 437.327 1161.98 436.98C1162.49 436.62 1163.12 436.44 1163.88 436.44C1165.1 436.44 1166.06 436.893 1166.78 437.8C1167.5 438.707 1167.86 440.053 1167.86 441.84C1167.86 443.627 1167.5 444.973 1166.78 445.88C1166.06 446.787 1165.1 447.24 1163.88 447.24C1163.12 447.24 1162.49 447.067 1161.98 446.72C1161.48 446.36 1161.07 445.867 1160.76 445.24H1160.64V451H1158.46V436.68ZM1162.98 445.46C1163.81 445.46 1164.44 445.207 1164.88 444.7C1165.34 444.193 1165.56 443.52 1165.56 442.68V441C1165.56 440.16 1165.34 439.487 1164.88 438.98C1164.44 438.473 1163.81 438.22 1162.98 438.22C1162.66 438.22 1162.36 438.26 1162.08 438.34C1161.8 438.42 1161.56 438.54 1161.34 438.7C1161.13 438.86 1160.96 439.06 1160.82 439.3C1160.7 439.527 1160.64 439.8 1160.64 440.12V443.56C1160.64 443.88 1160.7 444.16 1160.82 444.4C1160.96 444.627 1161.13 444.82 1161.34 444.98C1161.56 445.14 1161.8 445.26 1162.08 445.34C1162.36 445.42 1162.66 445.46 1162.98 445.46ZM1169.78 447L1173.62 441.76L1169.94 436.68H1172.48L1173.84 438.64L1174.92 440.2H1175.04L1176.1 438.64L1177.46 436.68H1179.82L1176.12 441.68L1180 447H1177.44L1175.9 444.78L1174.84 443.26H1174.72L1173.68 444.78L1172.16 447H1169.78Z" fill="black"/>
<path d="M459.859 450.24C457.992 450.24 456.606 449.613 455.699 448.36C454.806 447.093 454.359 445.313 454.359 443.02C454.359 440.727 454.806 438.953 455.699 437.7C456.606 436.433 457.992 435.8 459.859 435.8C460.579 435.8 461.212 435.9 461.759 436.1C462.319 436.287 462.799 436.553 463.199 436.9C463.599 437.247 463.926 437.667 464.179 438.16C464.446 438.653 464.652 439.207 464.799 439.82L461.999 440.5C461.919 440.167 461.826 439.86 461.719 439.58C461.612 439.3 461.472 439.06 461.299 438.86C461.139 438.66 460.932 438.507 460.679 438.4C460.439 438.28 460.146 438.22 459.799 438.22C458.986 438.22 458.406 438.54 458.059 439.18C457.726 439.807 457.559 440.68 457.559 441.8V444.24C457.559 445.36 457.726 446.24 458.059 446.88C458.406 447.507 458.986 447.82 459.799 447.82C460.492 447.82 460.992 447.607 461.299 447.18C461.619 446.753 461.852 446.207 461.999 445.54L464.799 446.22C464.652 446.833 464.446 447.387 464.179 447.88C463.926 448.373 463.599 448.8 463.199 449.16C462.799 449.507 462.319 449.773 461.759 449.96C461.212 450.147 460.579 450.24 459.859 450.24ZM471.531 450.24C470.731 450.24 470.011 450.12 469.371 449.88C468.731 449.627 468.185 449.267 467.731 448.8C467.291 448.333 466.951 447.767 466.711 447.1C466.471 446.433 466.351 445.68 466.351 444.84C466.351 444 466.471 443.247 466.711 442.58C466.951 441.913 467.291 441.347 467.731 440.88C468.185 440.413 468.731 440.06 469.371 439.82C470.011 439.567 470.731 439.44 471.531 439.44C472.331 439.44 473.051 439.567 473.691 439.82C474.331 440.06 474.871 440.413 475.311 440.88C475.765 441.347 476.111 441.913 476.351 442.58C476.591 443.247 476.711 444 476.711 444.84C476.711 445.68 476.591 446.433 476.351 447.1C476.111 447.767 475.765 448.333 475.311 448.8C474.871 449.267 474.331 449.627 473.691 449.88C473.051 450.12 472.331 450.24 471.531 450.24ZM471.531 448.04C472.198 448.04 472.718 447.833 473.091 447.42C473.465 447.007 473.651 446.42 473.651 445.66V444.02C473.651 443.26 473.465 442.673 473.091 442.26C472.718 441.847 472.198 441.64 471.531 441.64C470.865 441.64 470.345 441.847 469.971 442.26C469.598 442.673 469.411 443.26 469.411 444.02V445.66C469.411 446.42 469.598 447.007 469.971 447.42C470.345 447.833 470.865 448.04 471.531 448.04ZM478.883 447.7H482.043V437.5H478.883V435.2H485.003V447.7H488.163V450H478.883V447.7ZM490.876 447.7H494.036V437.5H490.876V435.2H496.996V447.7H500.156V450H490.876V447.7ZM511.248 450C510.634 450 510.141 449.847 509.768 449.54C509.394 449.22 509.174 448.767 509.108 448.18H509.008C508.821 448.86 508.448 449.373 507.888 449.72C507.341 450.067 506.668 450.24 505.868 450.24C504.868 450.24 504.061 449.973 503.448 449.44C502.848 448.893 502.548 448.133 502.548 447.16C502.548 446.08 502.941 445.28 503.728 444.76C504.514 444.24 505.668 443.98 507.188 443.98H508.848V443.46C508.848 442.847 508.701 442.387 508.408 442.08C508.128 441.76 507.648 441.6 506.968 441.6C506.341 441.6 505.834 441.72 505.448 441.96C505.061 442.2 504.728 442.513 504.448 442.9L502.828 441.46C503.174 440.873 503.714 440.393 504.448 440.02C505.194 439.633 506.148 439.44 507.308 439.44C508.721 439.44 509.821 439.767 510.608 440.42C511.408 441.06 511.808 442.033 511.808 443.34V447.86H512.948V450H511.248ZM506.988 448.3C507.508 448.3 507.948 448.173 508.308 447.92C508.668 447.667 508.848 447.3 508.848 446.82V445.58H507.268C506.054 445.58 505.448 445.987 505.448 446.8V447.2C505.448 447.56 505.588 447.833 505.868 448.02C506.148 448.207 506.521 448.3 506.988 448.3ZM514.68 439.68H517.64V441.56H517.78C518.033 440.947 518.4 440.44 518.88 440.04C519.36 439.64 520.013 439.44 520.84 439.44C521.413 439.44 521.933 439.547 522.4 439.76C522.88 439.973 523.287 440.3 523.62 440.74C523.967 441.18 524.233 441.74 524.42 442.42C524.62 443.1 524.72 443.907 524.72 444.84C524.72 445.773 524.62 446.58 524.42 447.26C524.233 447.94 523.967 448.5 523.62 448.94C523.287 449.38 522.88 449.707 522.4 449.92C521.933 450.133 521.413 450.24 520.84 450.24C520.013 450.24 519.36 450.047 518.88 449.66C518.4 449.26 518.033 448.747 517.78 448.12H517.64V454H514.68V439.68ZM519.56 447.94C520.227 447.94 520.74 447.74 521.1 447.34C521.46 446.927 521.64 446.36 521.64 445.64V444.04C521.64 443.32 521.46 442.76 521.1 442.36C520.74 441.947 520.227 441.74 519.56 441.74C519.04 441.74 518.587 441.867 518.2 442.12C517.827 442.373 517.64 442.773 517.64 443.32V446.36C517.64 446.907 517.827 447.307 518.2 447.56C518.587 447.813 519.04 447.94 519.56 447.94ZM531.372 450.24C530.226 450.24 529.226 450.067 528.372 449.72C527.532 449.373 526.899 448.9 526.472 448.3L528.132 446.76C528.532 447.2 528.999 447.547 529.532 447.8C530.079 448.04 530.699 448.16 531.392 448.16C531.979 448.16 532.439 448.073 532.772 447.9C533.106 447.713 533.272 447.433 533.272 447.06C533.272 446.767 533.159 446.567 532.932 446.46C532.706 446.34 532.392 446.247 531.992 446.18L530.332 445.92C529.866 445.853 529.432 445.753 529.032 445.62C528.632 445.473 528.286 445.28 527.992 445.04C527.699 444.8 527.466 444.507 527.292 444.16C527.119 443.813 527.032 443.393 527.032 442.9C527.032 441.82 527.446 440.973 528.272 440.36C529.099 439.747 530.259 439.44 531.752 439.44C532.766 439.44 533.626 439.58 534.332 439.86C535.052 440.127 535.626 440.513 536.052 441.02L534.572 442.7C534.266 442.367 533.872 442.087 533.392 441.86C532.912 441.633 532.332 441.52 531.652 441.52C530.506 441.52 529.932 441.867 529.932 442.56C529.932 442.867 530.046 443.08 530.272 443.2C530.499 443.307 530.812 443.393 531.212 443.46L532.852 443.72C533.319 443.787 533.752 443.893 534.152 444.04C534.552 444.173 534.899 444.36 535.192 444.6C535.499 444.84 535.739 445.133 535.912 445.48C536.086 445.827 536.172 446.247 536.172 446.74C536.172 447.82 535.752 448.673 534.912 449.3C534.086 449.927 532.906 450.24 531.372 450.24ZM544.124 438.36C543.458 438.36 542.991 438.227 542.724 437.96C542.471 437.68 542.344 437.347 542.344 436.96V436.38C542.344 435.98 542.471 435.647 542.724 435.38C542.991 435.113 543.458 434.98 544.124 434.98C544.791 434.98 545.251 435.113 545.504 435.38C545.771 435.647 545.904 435.98 545.904 436.38V436.96C545.904 437.347 545.771 437.68 545.504 437.96C545.251 438.227 544.791 438.36 544.124 438.36ZM539.364 447.7H542.644V441.98H539.364V439.68H545.604V447.7H548.644V450H539.364V447.7ZM550.777 450V439.68H553.737V441.56H553.857C553.977 441.267 554.123 440.993 554.297 440.74C554.47 440.487 554.677 440.267 554.917 440.08C555.17 439.88 555.457 439.727 555.777 439.62C556.11 439.5 556.483 439.44 556.897 439.44C557.39 439.44 557.843 439.527 558.257 439.7C558.67 439.86 559.023 440.107 559.317 440.44C559.61 440.773 559.837 441.18 559.997 441.66C560.17 442.14 560.257 442.693 560.257 443.32V450H557.297V443.72C557.297 442.387 556.717 441.72 555.557 441.72C555.33 441.72 555.103 441.753 554.877 441.82C554.663 441.873 554.47 441.967 554.297 442.1C554.123 442.22 553.983 442.373 553.877 442.56C553.783 442.747 553.737 442.967 553.737 443.22V450H550.777ZM573.129 451.04C573.129 452.133 572.669 452.94 571.749 453.46C570.829 453.98 569.382 454.24 567.409 454.24C566.422 454.24 565.609 454.18 564.969 454.06C564.329 453.953 563.815 453.793 563.429 453.58C563.055 453.367 562.789 453.113 562.629 452.82C562.482 452.527 562.409 452.207 562.409 451.86C562.409 451.273 562.582 450.827 562.929 450.52C563.275 450.227 563.762 450 564.389 449.84V449.72C563.949 449.587 563.595 449.4 563.329 449.16C563.075 448.907 562.949 448.553 562.949 448.1C562.949 447.593 563.115 447.22 563.449 446.98C563.795 446.74 564.249 446.553 564.809 446.42V446.3C564.195 446.007 563.715 445.593 563.369 445.06C563.035 444.527 562.869 443.88 562.869 443.12C562.869 442.52 562.975 441.993 563.189 441.54C563.402 441.073 563.702 440.687 564.089 440.38C564.489 440.073 564.962 439.84 565.509 439.68C566.055 439.52 566.669 439.44 567.349 439.44C568.002 439.44 568.609 439.513 569.169 439.66V439.1C569.169 438.7 569.309 438.367 569.589 438.1C569.869 437.833 570.255 437.7 570.749 437.7H572.569V439.86H570.089V440.04C570.649 440.333 571.082 440.74 571.389 441.26C571.709 441.767 571.869 442.387 571.869 443.12C571.869 443.72 571.762 444.247 571.549 444.7C571.335 445.153 571.029 445.54 570.629 445.86C570.229 446.167 569.749 446.4 569.189 446.56C568.642 446.72 568.029 446.8 567.349 446.8C567.042 446.8 566.749 446.787 566.469 446.76C566.189 446.72 565.922 446.667 565.669 446.6C565.522 446.68 565.395 446.78 565.289 446.9C565.195 447.02 565.149 447.173 565.149 447.36C565.149 447.52 565.189 447.647 565.269 447.74C565.349 447.833 565.455 447.907 565.589 447.96C565.735 448 565.902 448.027 566.089 448.04C566.275 448.053 566.469 448.06 566.669 448.06H569.029C569.762 448.06 570.389 448.133 570.909 448.28C571.429 448.427 571.855 448.633 572.189 448.9C572.522 449.167 572.762 449.48 572.909 449.84C573.055 450.2 573.129 450.6 573.129 451.04ZM570.329 451.26C570.329 450.993 570.222 450.78 570.009 450.62C569.795 450.473 569.389 450.4 568.789 450.4H565.249C564.982 450.627 564.849 450.907 564.849 451.24C564.849 451.56 564.982 451.82 565.249 452.02C565.529 452.233 565.995 452.34 566.649 452.34H568.389C569.069 452.34 569.562 452.247 569.869 452.06C570.175 451.873 570.329 451.607 570.329 451.26ZM567.349 444.92C567.949 444.92 568.382 444.773 568.649 444.48C568.929 444.187 569.069 443.813 569.069 443.36V442.88C569.069 442.427 568.929 442.053 568.649 441.76C568.382 441.467 567.949 441.32 567.349 441.32C566.762 441.32 566.335 441.467 566.069 441.76C565.802 442.053 565.669 442.427 565.669 442.88V443.36C565.669 443.813 565.802 444.187 566.069 444.48C566.335 444.773 566.762 444.92 567.349 444.92Z" fill="black"/>
<path d="M892.707 445.707C893.098 445.317 893.098 444.683 892.707 444.293L886.343 437.929C885.953 437.538 885.319 437.538 884.929 437.929C884.538 438.319 884.538 438.953 884.929 439.343L890.586 445L884.929 450.657C884.538 451.047 884.538 451.681 884.929 452.071C885.319 452.462 885.953 452.462 886.343 452.071L892.707 445.707ZM606 446L892 446L892 444L606 444L606 446Z" fill="black"/>
</svg>
