<svg width="1350" height="978" viewBox="0 0 1350 978" fill="none" xmlns="http://www.w3.org/2000/svg">
<rect width="1350" height="978" fill="#F3F0FF"/>
<rect x="50.5" y="90.5" width="368.822" height="249" fill="#C7B9FB" stroke="black"/>
<rect x="930.678" y="140.5" width="368.822" height="249" fill="#C7B9FB" stroke="black"/>
<rect x="50.5" y="638.5" width="368.822" height="249" fill="#C7B9FB" stroke="black"/>
<rect x="930.678" y="588.5" width="368.822" height="249" fill="#C7B9FB" stroke="black"/>
<rect x="50.5" y="339.5" width="368.822" height="100" fill="#FF847A" stroke="black"/>
<rect x="50.5" y="439.5" width="368.822" height="199" fill="#FF847A" stroke="black"/>
<rect x="930.678" y="389.5" width="368.822" height="199" fill="#FF847A" stroke="black"/>
<path d="M182.546 78V64.04H191.466V66.5H185.546V69.7H191.266V72.16H185.546V75.54H191.466V78H182.546ZM194.299 75.7H197.459V65.5H194.299V63.2H200.419V75.7H203.579V78H194.299V75.7ZM211.211 78.24C209.477 78.24 208.164 77.76 207.271 76.8C206.377 75.84 205.931 74.5333 205.931 72.88C205.931 72.04 206.044 71.2867 206.271 70.62C206.511 69.94 206.844 69.3667 207.271 68.9C207.711 68.42 208.237 68.06 208.851 67.82C209.477 67.5667 210.177 67.44 210.951 67.44C211.724 67.44 212.417 67.5667 213.031 67.82C213.644 68.06 214.164 68.4067 214.591 68.86C215.017 69.3133 215.344 69.8667 215.571 70.52C215.811 71.16 215.931 71.88 215.931 72.68V73.56H208.871V73.74C208.871 74.4067 209.077 74.9467 209.491 75.36C209.904 75.76 210.511 75.96 211.311 75.96C211.924 75.96 212.451 75.8467 212.891 75.62C213.331 75.38 213.711 75.0667 214.031 74.68L215.631 76.42C215.231 76.9133 214.671 77.34 213.951 77.7C213.231 78.06 212.317 78.24 211.211 78.24ZM210.971 69.56C210.331 69.56 209.817 69.76 209.431 70.16C209.057 70.5467 208.871 71.0733 208.871 71.74V71.9H213.031V71.74C213.031 71.06 212.844 70.5267 212.471 70.14C212.111 69.7533 211.611 69.56 210.971 69.56ZM217.523 78V67.68H219.903V69.2H220.043C220.203 68.72 220.43 68.3067 220.723 67.96C221.03 67.6133 221.456 67.44 222.003 67.44C223.003 67.44 223.616 68.0267 223.843 69.2H223.963C224.043 68.96 224.143 68.7333 224.263 68.52C224.383 68.3067 224.53 68.12 224.703 67.96C224.876 67.8 225.083 67.6733 225.323 67.58C225.563 67.4867 225.843 67.44 226.163 67.44C227.603 67.44 228.323 68.5 228.323 70.62V78H225.943V70.92C225.943 70.44 225.856 70.1067 225.683 69.92C225.523 69.72 225.31 69.62 225.043 69.62C224.79 69.62 224.57 69.7067 224.383 69.88C224.21 70.04 224.123 70.2933 224.123 70.64V78H221.723V70.92C221.723 70.44 221.643 70.1067 221.483 69.92C221.336 69.72 221.13 69.62 220.863 69.62C220.596 69.62 220.37 69.7067 220.183 69.88C219.996 70.04 219.903 70.2933 219.903 70.64V78H217.523ZM235.195 78.24C233.462 78.24 232.148 77.76 231.255 76.8C230.362 75.84 229.915 74.5333 229.915 72.88C229.915 72.04 230.028 71.2867 230.255 70.62C230.495 69.94 230.828 69.3667 231.255 68.9C231.695 68.42 232.222 68.06 232.835 67.82C233.462 67.5667 234.162 67.44 234.935 67.44C235.708 67.44 236.402 67.5667 237.015 67.82C237.628 68.06 238.148 68.4067 238.575 68.86C239.002 69.3133 239.328 69.8667 239.555 70.52C239.795 71.16 239.915 71.88 239.915 72.68V73.56H232.855V73.74C232.855 74.4067 233.062 74.9467 233.475 75.36C233.888 75.76 234.495 75.96 235.295 75.96C235.908 75.96 236.435 75.8467 236.875 75.62C237.315 75.38 237.695 75.0667 238.015 74.68L239.615 76.42C239.215 76.9133 238.655 77.34 237.935 77.7C237.215 78.06 236.302 78.24 235.195 78.24ZM234.955 69.56C234.315 69.56 233.802 69.76 233.415 70.16C233.042 70.5467 232.855 71.0733 232.855 71.74V71.9H237.015V71.74C237.015 71.06 236.828 70.5267 236.455 70.14C236.095 69.7533 235.595 69.56 234.955 69.56ZM242.207 78V67.68H245.167V69.56H245.287C245.407 69.2667 245.554 68.9933 245.727 68.74C245.901 68.4867 246.107 68.2667 246.347 68.08C246.601 67.88 246.887 67.7267 247.207 67.62C247.541 67.5 247.914 67.44 248.327 67.44C248.821 67.44 249.274 67.5267 249.687 67.7C250.101 67.86 250.454 68.1067 250.747 68.44C251.041 68.7733 251.267 69.18 251.427 69.66C251.601 70.14 251.687 70.6933 251.687 71.32V78H248.727V71.72C248.727 70.3867 248.147 69.72 246.987 69.72C246.761 69.72 246.534 69.7533 246.307 69.82C246.094 69.8733 245.901 69.9667 245.727 70.1C245.554 70.22 245.414 70.3733 245.307 70.56C245.214 70.7467 245.167 70.9667 245.167 71.22V78H242.207ZM259.7 78C258.633 78 257.84 77.72 257.32 77.16C256.8 76.6 256.54 75.8867 256.54 75.02V69.98H253.74V67.68H255.56C256 67.68 256.313 67.5933 256.5 67.42C256.686 67.2467 256.78 66.9267 256.78 66.46V64.04H259.5V67.68H263.52V69.98H259.5V75.7H263.52V78H259.7ZM285.584 78L284.704 74.64H280.884L280.024 78H276.984L280.764 64.04H285.004L288.784 78H285.584ZM282.884 66.94H282.724L281.364 72.22H284.244L282.884 66.94Z" fill="black"/>
<path d="M1062.72 128V114.04H1071.64V116.5H1065.72V119.7H1071.44V122.16H1065.72V125.54H1071.64V128H1062.72ZM1074.48 125.7H1077.64V115.5H1074.48V113.2H1080.6V125.7H1083.76V128H1074.48V125.7ZM1091.39 128.24C1089.66 128.24 1088.34 127.76 1087.45 126.8C1086.56 125.84 1086.11 124.533 1086.11 122.88C1086.11 122.04 1086.22 121.287 1086.45 120.62C1086.69 119.94 1087.02 119.367 1087.45 118.9C1087.89 118.42 1088.42 118.06 1089.03 117.82C1089.66 117.567 1090.36 117.44 1091.13 117.44C1091.9 117.44 1092.6 117.567 1093.21 117.82C1093.82 118.06 1094.34 118.407 1094.77 118.86C1095.2 119.313 1095.52 119.867 1095.75 120.52C1095.99 121.16 1096.11 121.88 1096.11 122.68V123.56H1089.05V123.74C1089.05 124.407 1089.26 124.947 1089.67 125.36C1090.08 125.76 1090.69 125.96 1091.49 125.96C1092.1 125.96 1092.63 125.847 1093.07 125.62C1093.51 125.38 1093.89 125.067 1094.21 124.68L1095.81 126.42C1095.41 126.913 1094.85 127.34 1094.13 127.7C1093.41 128.06 1092.5 128.24 1091.39 128.24ZM1091.15 119.56C1090.51 119.56 1090 119.76 1089.61 120.16C1089.24 120.547 1089.05 121.073 1089.05 121.74V121.9H1093.21V121.74C1093.21 121.06 1093.02 120.527 1092.65 120.14C1092.29 119.753 1091.79 119.56 1091.15 119.56ZM1097.7 128V117.68H1100.08V119.2H1100.22C1100.38 118.72 1100.61 118.307 1100.9 117.96C1101.21 117.613 1101.63 117.44 1102.18 117.44C1103.18 117.44 1103.79 118.027 1104.02 119.2H1104.14C1104.22 118.96 1104.32 118.733 1104.44 118.52C1104.56 118.307 1104.71 118.12 1104.88 117.96C1105.05 117.8 1105.26 117.673 1105.5 117.58C1105.74 117.487 1106.02 117.44 1106.34 117.44C1107.78 117.44 1108.5 118.5 1108.5 120.62V128H1106.12V120.92C1106.12 120.44 1106.03 120.107 1105.86 119.92C1105.7 119.72 1105.49 119.62 1105.22 119.62C1104.97 119.62 1104.75 119.707 1104.56 119.88C1104.39 120.04 1104.3 120.293 1104.3 120.64V128H1101.9V120.92C1101.9 120.44 1101.82 120.107 1101.66 119.92C1101.51 119.72 1101.31 119.62 1101.04 119.62C1100.77 119.62 1100.55 119.707 1100.36 119.88C1100.17 120.04 1100.08 120.293 1100.08 120.64V128H1097.7ZM1115.37 128.24C1113.64 128.24 1112.33 127.76 1111.43 126.8C1110.54 125.84 1110.09 124.533 1110.09 122.88C1110.09 122.04 1110.21 121.287 1110.43 120.62C1110.67 119.94 1111.01 119.367 1111.43 118.9C1111.87 118.42 1112.4 118.06 1113.01 117.82C1113.64 117.567 1114.34 117.44 1115.11 117.44C1115.89 117.44 1116.58 117.567 1117.19 117.82C1117.81 118.06 1118.33 118.407 1118.75 118.86C1119.18 119.313 1119.51 119.867 1119.73 120.52C1119.97 121.16 1120.09 121.88 1120.09 122.68V123.56H1113.03V123.74C1113.03 124.407 1113.24 124.947 1113.65 125.36C1114.07 125.76 1114.67 125.96 1115.47 125.96C1116.09 125.96 1116.61 125.847 1117.05 125.62C1117.49 125.38 1117.87 125.067 1118.19 124.68L1119.79 126.42C1119.39 126.913 1118.83 127.34 1118.11 127.7C1117.39 128.06 1116.48 128.24 1115.37 128.24ZM1115.13 119.56C1114.49 119.56 1113.98 119.76 1113.59 120.16C1113.22 120.547 1113.03 121.073 1113.03 121.74V121.9H1117.19V121.74C1117.19 121.06 1117.01 120.527 1116.63 120.14C1116.27 119.753 1115.77 119.56 1115.13 119.56ZM1122.39 128V117.68H1125.35V119.56H1125.47C1125.59 119.267 1125.73 118.993 1125.91 118.74C1126.08 118.487 1126.29 118.267 1126.53 118.08C1126.78 117.88 1127.07 117.727 1127.39 117.62C1127.72 117.5 1128.09 117.44 1128.51 117.44C1129 117.44 1129.45 117.527 1129.87 117.7C1130.28 117.86 1130.63 118.107 1130.93 118.44C1131.22 118.773 1131.45 119.18 1131.61 119.66C1131.78 120.14 1131.87 120.693 1131.87 121.32V128H1128.91V121.72C1128.91 120.387 1128.33 119.72 1127.17 119.72C1126.94 119.72 1126.71 119.753 1126.49 119.82C1126.27 119.873 1126.08 119.967 1125.91 120.1C1125.73 120.22 1125.59 120.373 1125.49 120.56C1125.39 120.747 1125.35 120.967 1125.35 121.22V128H1122.39ZM1139.88 128C1138.81 128 1138.02 127.72 1137.5 127.16C1136.98 126.6 1136.72 125.887 1136.72 125.02V119.98H1133.92V117.68H1135.74C1136.18 117.68 1136.49 117.593 1136.68 117.42C1136.86 117.247 1136.96 116.927 1136.96 116.46V114.04H1139.68V117.68H1143.7V119.98H1139.68V125.7H1143.7V128H1139.88ZM1165.76 128L1164.88 124.64H1161.06L1160.2 128H1157.16L1160.94 114.04H1165.18L1168.96 128H1165.76ZM1163.06 116.94H1162.9L1161.54 122.22H1164.42L1163.06 116.94Z" fill="black"/>
<path d="M182.546 916V902.04H191.466V904.5H185.546V907.7H191.266V910.16H185.546V913.54H191.466V916H182.546ZM194.299 913.7H197.459V903.5H194.299V901.2H200.419V913.7H203.579V916H194.299V913.7ZM211.211 916.24C209.477 916.24 208.164 915.76 207.271 914.8C206.377 913.84 205.931 912.533 205.931 910.88C205.931 910.04 206.044 909.287 206.271 908.62C206.511 907.94 206.844 907.367 207.271 906.9C207.711 906.42 208.237 906.06 208.851 905.82C209.477 905.567 210.177 905.44 210.951 905.44C211.724 905.44 212.417 905.567 213.031 905.82C213.644 906.06 214.164 906.407 214.591 906.86C215.017 907.313 215.344 907.867 215.571 908.52C215.811 909.16 215.931 909.88 215.931 910.68V911.56H208.871V911.74C208.871 912.407 209.077 912.947 209.491 913.36C209.904 913.76 210.511 913.96 211.311 913.96C211.924 913.96 212.451 913.847 212.891 913.62C213.331 913.38 213.711 913.067 214.031 912.68L215.631 914.42C215.231 914.913 214.671 915.34 213.951 915.7C213.231 916.06 212.317 916.24 211.211 916.24ZM210.971 907.56C210.331 907.56 209.817 907.76 209.431 908.16C209.057 908.547 208.871 909.073 208.871 909.74V909.9H213.031V909.74C213.031 909.06 212.844 908.527 212.471 908.14C212.111 907.753 211.611 907.56 210.971 907.56ZM217.523 916V905.68H219.903V907.2H220.043C220.203 906.72 220.43 906.307 220.723 905.96C221.03 905.613 221.456 905.44 222.003 905.44C223.003 905.44 223.616 906.027 223.843 907.2H223.963C224.043 906.96 224.143 906.733 224.263 906.52C224.383 906.307 224.53 906.12 224.703 905.96C224.876 905.8 225.083 905.673 225.323 905.58C225.563 905.487 225.843 905.44 226.163 905.44C227.603 905.44 228.323 906.5 228.323 908.62V916H225.943V908.92C225.943 908.44 225.856 908.107 225.683 907.92C225.523 907.72 225.31 907.62 225.043 907.62C224.79 907.62 224.57 907.707 224.383 907.88C224.21 908.04 224.123 908.293 224.123 908.64V916H221.723V908.92C221.723 908.44 221.643 908.107 221.483 907.92C221.336 907.72 221.13 907.62 220.863 907.62C220.596 907.62 220.37 907.707 220.183 907.88C219.996 908.04 219.903 908.293 219.903 908.64V916H217.523ZM235.195 916.24C233.462 916.24 232.148 915.76 231.255 914.8C230.362 913.84 229.915 912.533 229.915 910.88C229.915 910.04 230.028 909.287 230.255 908.62C230.495 907.94 230.828 907.367 231.255 906.9C231.695 906.42 232.222 906.06 232.835 905.82C233.462 905.567 234.162 905.44 234.935 905.44C235.708 905.44 236.402 905.567 237.015 905.82C237.628 906.06 238.148 906.407 238.575 906.86C239.002 907.313 239.328 907.867 239.555 908.52C239.795 909.16 239.915 909.88 239.915 910.68V911.56H232.855V911.74C232.855 912.407 233.062 912.947 233.475 913.36C233.888 913.76 234.495 913.96 235.295 913.96C235.908 913.96 236.435 913.847 236.875 913.62C237.315 913.38 237.695 913.067 238.015 912.68L239.615 914.42C239.215 914.913 238.655 915.34 237.935 915.7C237.215 916.06 236.302 916.24 235.195 916.24ZM234.955 907.56C234.315 907.56 233.802 907.76 233.415 908.16C233.042 908.547 232.855 909.073 232.855 909.74V909.9H237.015V909.74C237.015 909.06 236.828 908.527 236.455 908.14C236.095 907.753 235.595 907.56 234.955 907.56ZM242.207 916V905.68H245.167V907.56H245.287C245.407 907.267 245.554 906.993 245.727 906.74C245.901 906.487 246.107 906.267 246.347 906.08C246.601 905.88 246.887 905.727 247.207 905.62C247.541 905.5 247.914 905.44 248.327 905.44C248.821 905.44 249.274 905.527 249.687 905.7C250.101 905.86 250.454 906.107 250.747 906.44C251.041 906.773 251.267 907.18 251.427 907.66C251.601 908.14 251.687 908.693 251.687 909.32V916H248.727V909.72C248.727 908.387 248.147 907.72 246.987 907.72C246.761 907.72 246.534 907.753 246.307 907.82C246.094 907.873 245.901 907.967 245.727 908.1C245.554 908.22 245.414 908.373 245.307 908.56C245.214 908.747 245.167 908.967 245.167 909.22V916H242.207ZM259.7 916C258.633 916 257.84 915.72 257.32 915.16C256.8 914.6 256.54 913.887 256.54 913.02V907.98H253.74V905.68H255.56C256 905.68 256.313 905.593 256.5 905.42C256.686 905.247 256.78 904.927 256.78 904.46V902.04H259.5V905.68H263.52V907.98H259.5V913.7H263.52V916H259.7ZM278.424 902.04H283.324C284.697 902.04 285.744 902.373 286.464 903.04C287.197 903.707 287.564 904.613 287.564 905.76C287.564 906.56 287.364 907.2 286.964 907.68C286.577 908.147 286.017 908.487 285.284 908.7V908.82C286.151 909.033 286.817 909.407 287.284 909.94C287.764 910.473 288.004 911.213 288.004 912.16C288.004 913.333 287.631 914.267 286.884 914.96C286.151 915.653 285.117 916 283.784 916H278.424V902.04ZM282.864 913.9C283.584 913.9 284.111 913.78 284.444 913.54C284.777 913.3 284.944 912.86 284.944 912.22V911.64C284.944 911 284.777 910.56 284.444 910.32C284.111 910.08 283.584 909.96 282.864 909.96H281.344V913.9H282.864ZM282.484 907.96C283.191 907.96 283.704 907.847 284.024 907.62C284.344 907.38 284.504 906.953 284.504 906.34V905.74C284.504 905.127 284.344 904.707 284.024 904.48C283.704 904.253 283.191 904.14 282.484 904.14H281.344V907.96H282.484Z" fill="black"/>
<path d="M1062.72 866V852.04H1071.64V854.5H1065.72V857.7H1071.44V860.16H1065.72V863.54H1071.64V866H1062.72ZM1074.48 863.7H1077.64V853.5H1074.48V851.2H1080.6V863.7H1083.76V866H1074.48V863.7ZM1091.39 866.24C1089.66 866.24 1088.34 865.76 1087.45 864.8C1086.56 863.84 1086.11 862.533 1086.11 860.88C1086.11 860.04 1086.22 859.287 1086.45 858.62C1086.69 857.94 1087.02 857.367 1087.45 856.9C1087.89 856.42 1088.42 856.06 1089.03 855.82C1089.66 855.567 1090.36 855.44 1091.13 855.44C1091.9 855.44 1092.6 855.567 1093.21 855.82C1093.82 856.06 1094.34 856.407 1094.77 856.86C1095.2 857.313 1095.52 857.867 1095.75 858.52C1095.99 859.16 1096.11 859.88 1096.11 860.68V861.56H1089.05V861.74C1089.05 862.407 1089.26 862.947 1089.67 863.36C1090.08 863.76 1090.69 863.96 1091.49 863.96C1092.1 863.96 1092.63 863.847 1093.07 863.62C1093.51 863.38 1093.89 863.067 1094.21 862.68L1095.81 864.42C1095.41 864.913 1094.85 865.34 1094.13 865.7C1093.41 866.06 1092.5 866.24 1091.39 866.24ZM1091.15 857.56C1090.51 857.56 1090 857.76 1089.61 858.16C1089.24 858.547 1089.05 859.073 1089.05 859.74V859.9H1093.21V859.74C1093.21 859.06 1093.02 858.527 1092.65 858.14C1092.29 857.753 1091.79 857.56 1091.15 857.56ZM1097.7 866V855.68H1100.08V857.2H1100.22C1100.38 856.72 1100.61 856.307 1100.9 855.96C1101.21 855.613 1101.63 855.44 1102.18 855.44C1103.18 855.44 1103.79 856.027 1104.02 857.2H1104.14C1104.22 856.96 1104.32 856.733 1104.44 856.52C1104.56 856.307 1104.71 856.12 1104.88 855.96C1105.05 855.8 1105.26 855.673 1105.5 855.58C1105.74 855.487 1106.02 855.44 1106.34 855.44C1107.78 855.44 1108.5 856.5 1108.5 858.62V866H1106.12V858.92C1106.12 858.44 1106.03 858.107 1105.86 857.92C1105.7 857.72 1105.49 857.62 1105.22 857.62C1104.97 857.62 1104.75 857.707 1104.56 857.88C1104.39 858.04 1104.3 858.293 1104.3 858.64V866H1101.9V858.92C1101.9 858.44 1101.82 858.107 1101.66 857.92C1101.51 857.72 1101.31 857.62 1101.04 857.62C1100.77 857.62 1100.55 857.707 1100.36 857.88C1100.17 858.04 1100.08 858.293 1100.08 858.64V866H1097.7ZM1115.37 866.24C1113.64 866.24 1112.33 865.76 1111.43 864.8C1110.54 863.84 1110.09 862.533 1110.09 860.88C1110.09 860.04 1110.21 859.287 1110.43 858.62C1110.67 857.94 1111.01 857.367 1111.43 856.9C1111.87 856.42 1112.4 856.06 1113.01 855.82C1113.64 855.567 1114.34 855.44 1115.11 855.44C1115.89 855.44 1116.58 855.567 1117.19 855.82C1117.81 856.06 1118.33 856.407 1118.75 856.86C1119.18 857.313 1119.51 857.867 1119.73 858.52C1119.97 859.16 1120.09 859.88 1120.09 860.68V861.56H1113.03V861.74C1113.03 862.407 1113.24 862.947 1113.65 863.36C1114.07 863.76 1114.67 863.96 1115.47 863.96C1116.09 863.96 1116.61 863.847 1117.05 863.62C1117.49 863.38 1117.87 863.067 1118.19 862.68L1119.79 864.42C1119.39 864.913 1118.83 865.34 1118.11 865.7C1117.39 866.06 1116.48 866.24 1115.37 866.24ZM1115.13 857.56C1114.49 857.56 1113.98 857.76 1113.59 858.16C1113.22 858.547 1113.03 859.073 1113.03 859.74V859.9H1117.19V859.74C1117.19 859.06 1117.01 858.527 1116.63 858.14C1116.27 857.753 1115.77 857.56 1115.13 857.56ZM1122.39 866V855.68H1125.35V857.56H1125.47C1125.59 857.267 1125.73 856.993 1125.91 856.74C1126.08 856.487 1126.29 856.267 1126.53 856.08C1126.78 855.88 1127.07 855.727 1127.39 855.62C1127.72 855.5 1128.09 855.44 1128.51 855.44C1129 855.44 1129.45 855.527 1129.87 855.7C1130.28 855.86 1130.63 856.107 1130.93 856.44C1131.22 856.773 1131.45 857.18 1131.61 857.66C1131.78 858.14 1131.87 858.693 1131.87 859.32V866H1128.91V859.72C1128.91 858.387 1128.33 857.72 1127.17 857.72C1126.94 857.72 1126.71 857.753 1126.49 857.82C1126.27 857.873 1126.08 857.967 1125.91 858.1C1125.73 858.22 1125.59 858.373 1125.49 858.56C1125.39 858.747 1125.35 858.967 1125.35 859.22V866H1122.39ZM1139.88 866C1138.81 866 1138.02 865.72 1137.5 865.16C1136.98 864.6 1136.72 863.887 1136.72 863.02V857.98H1133.92V855.68H1135.74C1136.18 855.68 1136.49 855.593 1136.68 855.42C1136.86 855.247 1136.96 854.927 1136.96 854.46V852.04H1139.68V855.68H1143.7V857.98H1139.68V863.7H1143.7V866H1139.88ZM1158.6 852.04H1163.5C1164.87 852.04 1165.92 852.373 1166.64 853.04C1167.37 853.707 1167.74 854.613 1167.74 855.76C1167.74 856.56 1167.54 857.2 1167.14 857.68C1166.75 858.147 1166.19 858.487 1165.46 858.7V858.82C1166.33 859.033 1166.99 859.407 1167.46 859.94C1167.94 860.473 1168.18 861.213 1168.18 862.16C1168.18 863.333 1167.81 864.267 1167.06 864.96C1166.33 865.653 1165.29 866 1163.96 866H1158.6V852.04ZM1163.04 863.9C1163.76 863.9 1164.29 863.78 1164.62 863.54C1164.95 863.3 1165.12 862.86 1165.12 862.22V861.64C1165.12 861 1164.95 860.56 1164.62 860.32C1164.29 860.08 1163.76 859.96 1163.04 859.96H1161.52V863.9H1163.04ZM1162.66 857.96C1163.37 857.96 1163.88 857.847 1164.2 857.62C1164.52 857.38 1164.68 856.953 1164.68 856.34V855.74C1164.68 855.127 1164.52 854.707 1164.2 854.48C1163.88 854.253 1163.37 854.14 1162.66 854.14H1161.52V857.96H1162.66Z" fill="black"/>
<path d="M459.859 500.24C457.992 500.24 456.606 499.613 455.699 498.36C454.806 497.093 454.359 495.313 454.359 493.02C454.359 490.727 454.806 488.953 455.699 487.7C456.606 486.433 457.992 485.8 459.859 485.8C460.579 485.8 461.212 485.9 461.759 486.1C462.319 486.287 462.799 486.553 463.199 486.9C463.599 487.247 463.926 487.667 464.179 488.16C464.446 488.653 464.652 489.207 464.799 489.82L461.999 490.5C461.919 490.167 461.826 489.86 461.719 489.58C461.612 489.3 461.472 489.06 461.299 488.86C461.139 488.66 460.932 488.507 460.679 488.4C460.439 488.28 460.146 488.22 459.799 488.22C458.986 488.22 458.406 488.54 458.059 489.18C457.726 489.807 457.559 490.68 457.559 491.8V494.24C457.559 495.36 457.726 496.24 458.059 496.88C458.406 497.507 458.986 497.82 459.799 497.82C460.492 497.82 460.992 497.607 461.299 497.18C461.619 496.753 461.852 496.207 461.999 495.54L464.799 496.22C464.652 496.833 464.446 497.387 464.179 497.88C463.926 498.373 463.599 498.8 463.199 499.16C462.799 499.507 462.319 499.773 461.759 499.96C461.212 500.147 460.579 500.24 459.859 500.24ZM471.531 500.24C470.731 500.24 470.011 500.12 469.371 499.88C468.731 499.627 468.185 499.267 467.731 498.8C467.291 498.333 466.951 497.767 466.711 497.1C466.471 496.433 466.351 495.68 466.351 494.84C466.351 494 466.471 493.247 466.711 492.58C466.951 491.913 467.291 491.347 467.731 490.88C468.185 490.413 468.731 490.06 469.371 489.82C470.011 489.567 470.731 489.44 471.531 489.44C472.331 489.44 473.051 489.567 473.691 489.82C474.331 490.06 474.871 490.413 475.311 490.88C475.765 491.347 476.111 491.913 476.351 492.58C476.591 493.247 476.711 494 476.711 494.84C476.711 495.68 476.591 496.433 476.351 497.1C476.111 497.767 475.765 498.333 475.311 498.8C474.871 499.267 474.331 499.627 473.691 499.88C473.051 500.12 472.331 500.24 471.531 500.24ZM471.531 498.04C472.198 498.04 472.718 497.833 473.091 497.42C473.465 497.007 473.651 496.42 473.651 495.66V494.02C473.651 493.26 473.465 492.673 473.091 492.26C472.718 491.847 472.198 491.64 471.531 491.64C470.865 491.64 470.345 491.847 469.971 492.26C469.598 492.673 469.411 493.26 469.411 494.02V495.66C469.411 496.42 469.598 497.007 469.971 497.42C470.345 497.833 470.865 498.04 471.531 498.04ZM478.883 497.7H482.043V487.5H478.883V485.2H485.003V497.7H488.163V500H478.883V497.7ZM490.876 497.7H494.036V487.5H490.876V485.2H496.996V497.7H500.156V500H490.876V497.7ZM511.248 500C510.634 500 510.141 499.847 509.768 499.54C509.394 499.22 509.174 498.767 509.108 498.18H509.008C508.821 498.86 508.448 499.373 507.888 499.72C507.341 500.067 506.668 500.24 505.868 500.24C504.868 500.24 504.061 499.973 503.448 499.44C502.848 498.893 502.548 498.133 502.548 497.16C502.548 496.08 502.941 495.28 503.728 494.76C504.514 494.24 505.668 493.98 507.188 493.98H508.848V493.46C508.848 492.847 508.701 492.387 508.408 492.08C508.128 491.76 507.648 491.6 506.968 491.6C506.341 491.6 505.834 491.72 505.448 491.96C505.061 492.2 504.728 492.513 504.448 492.9L502.828 491.46C503.174 490.873 503.714 490.393 504.448 490.02C505.194 489.633 506.148 489.44 507.308 489.44C508.721 489.44 509.821 489.767 510.608 490.42C511.408 491.06 511.808 492.033 511.808 493.34V497.86H512.948V500H511.248ZM506.988 498.3C507.508 498.3 507.948 498.173 508.308 497.92C508.668 497.667 508.848 497.3 508.848 496.82V495.58H507.268C506.054 495.58 505.448 495.987 505.448 496.8V497.2C505.448 497.56 505.588 497.833 505.868 498.02C506.148 498.207 506.521 498.3 506.988 498.3ZM514.68 489.68H517.64V491.56H517.78C518.033 490.947 518.4 490.44 518.88 490.04C519.36 489.64 520.013 489.44 520.84 489.44C521.413 489.44 521.933 489.547 522.4 489.76C522.88 489.973 523.287 490.3 523.62 490.74C523.967 491.18 524.233 491.74 524.42 492.42C524.62 493.1 524.72 493.907 524.72 494.84C524.72 495.773 524.62 496.58 524.42 497.26C524.233 497.94 523.967 498.5 523.62 498.94C523.287 499.38 522.88 499.707 522.4 499.92C521.933 500.133 521.413 500.24 520.84 500.24C520.013 500.24 519.36 500.047 518.88 499.66C518.4 499.26 518.033 498.747 517.78 498.12H517.64V504H514.68V489.68ZM519.56 497.94C520.227 497.94 520.74 497.74 521.1 497.34C521.46 496.927 521.64 496.36 521.64 495.64V494.04C521.64 493.32 521.46 492.76 521.1 492.36C520.74 491.947 520.227 491.74 519.56 491.74C519.04 491.74 518.587 491.867 518.2 492.12C517.827 492.373 517.64 492.773 517.64 493.32V496.36C517.64 496.907 517.827 497.307 518.2 497.56C518.587 497.813 519.04 497.94 519.56 497.94ZM531.372 500.24C530.226 500.24 529.226 500.067 528.372 499.72C527.532 499.373 526.899 498.9 526.472 498.3L528.132 496.76C528.532 497.2 528.999 497.547 529.532 497.8C530.079 498.04 530.699 498.16 531.392 498.16C531.979 498.16 532.439 498.073 532.772 497.9C533.106 497.713 533.272 497.433 533.272 497.06C533.272 496.767 533.159 496.567 532.932 496.46C532.706 496.34 532.392 496.247 531.992 496.18L530.332 495.92C529.866 495.853 529.432 495.753 529.032 495.62C528.632 495.473 528.286 495.28 527.992 495.04C527.699 494.8 527.466 494.507 527.292 494.16C527.119 493.813 527.032 493.393 527.032 492.9C527.032 491.82 527.446 490.973 528.272 490.36C529.099 489.747 530.259 489.44 531.752 489.44C532.766 489.44 533.626 489.58 534.332 489.86C535.052 490.127 535.626 490.513 536.052 491.02L534.572 492.7C534.266 492.367 533.872 492.087 533.392 491.86C532.912 491.633 532.332 491.52 531.652 491.52C530.506 491.52 529.932 491.867 529.932 492.56C529.932 492.867 530.046 493.08 530.272 493.2C530.499 493.307 530.812 493.393 531.212 493.46L532.852 493.72C533.319 493.787 533.752 493.893 534.152 494.04C534.552 494.173 534.899 494.36 535.192 494.6C535.499 494.84 535.739 495.133 535.912 495.48C536.086 495.827 536.172 496.247 536.172 496.74C536.172 497.82 535.752 498.673 534.912 499.3C534.086 499.927 532.906 500.24 531.372 500.24ZM544.124 488.36C543.458 488.36 542.991 488.227 542.724 487.96C542.471 487.68 542.344 487.347 542.344 486.96V486.38C542.344 485.98 542.471 485.647 542.724 485.38C542.991 485.113 543.458 484.98 544.124 484.98C544.791 484.98 545.251 485.113 545.504 485.38C545.771 485.647 545.904 485.98 545.904 486.38V486.96C545.904 487.347 545.771 487.68 545.504 487.96C545.251 488.227 544.791 488.36 544.124 488.36ZM539.364 497.7H542.644V491.98H539.364V489.68H545.604V497.7H548.644V500H539.364V497.7ZM550.777 500V489.68H553.737V491.56H553.857C553.977 491.267 554.123 490.993 554.297 490.74C554.47 490.487 554.677 490.267 554.917 490.08C555.17 489.88 555.457 489.727 555.777 489.62C556.11 489.5 556.483 489.44 556.897 489.44C557.39 489.44 557.843 489.527 558.257 489.7C558.67 489.86 559.023 490.107 559.317 490.44C559.61 490.773 559.837 491.18 559.997 491.66C560.17 492.14 560.257 492.693 560.257 493.32V500H557.297V493.72C557.297 492.387 556.717 491.72 555.557 491.72C555.33 491.72 555.103 491.753 554.877 491.82C554.663 491.873 554.47 491.967 554.297 492.1C554.123 492.22 553.983 492.373 553.877 492.56C553.783 492.747 553.737 492.967 553.737 493.22V500H550.777ZM573.129 501.04C573.129 502.133 572.669 502.94 571.749 503.46C570.829 503.98 569.382 504.24 567.409 504.24C566.422 504.24 565.609 504.18 564.969 504.06C564.329 503.953 563.815 503.793 563.429 503.58C563.055 503.367 562.789 503.113 562.629 502.82C562.482 502.527 562.409 502.207 562.409 501.86C562.409 501.273 562.582 500.827 562.929 500.52C563.275 500.227 563.762 500 564.389 499.84V499.72C563.949 499.587 563.595 499.4 563.329 499.16C563.075 498.907 562.949 498.553 562.949 498.1C562.949 497.593 563.115 497.22 563.449 496.98C563.795 496.74 564.249 496.553 564.809 496.42V496.3C564.195 496.007 563.715 495.593 563.369 495.06C563.035 494.527 562.869 493.88 562.869 493.12C562.869 492.52 562.975 491.993 563.189 491.54C563.402 491.073 563.702 490.687 564.089 490.38C564.489 490.073 564.962 489.84 565.509 489.68C566.055 489.52 566.669 489.44 567.349 489.44C568.002 489.44 568.609 489.513 569.169 489.66V489.1C569.169 488.7 569.309 488.367 569.589 488.1C569.869 487.833 570.255 487.7 570.749 487.7H572.569V489.86H570.089V490.04C570.649 490.333 571.082 490.74 571.389 491.26C571.709 491.767 571.869 492.387 571.869 493.12C571.869 493.72 571.762 494.247 571.549 494.7C571.335 495.153 571.029 495.54 570.629 495.86C570.229 496.167 569.749 496.4 569.189 496.56C568.642 496.72 568.029 496.8 567.349 496.8C567.042 496.8 566.749 496.787 566.469 496.76C566.189 496.72 565.922 496.667 565.669 496.6C565.522 496.68 565.395 496.78 565.289 496.9C565.195 497.02 565.149 497.173 565.149 497.36C565.149 497.52 565.189 497.647 565.269 497.74C565.349 497.833 565.455 497.907 565.589 497.96C565.735 498 565.902 498.027 566.089 498.04C566.275 498.053 566.469 498.06 566.669 498.06H569.029C569.762 498.06 570.389 498.133 570.909 498.28C571.429 498.427 571.855 498.633 572.189 498.9C572.522 499.167 572.762 499.48 572.909 499.84C573.055 500.2 573.129 500.6 573.129 501.04ZM570.329 501.26C570.329 500.993 570.222 500.78 570.009 500.62C569.795 500.473 569.389 500.4 568.789 500.4H565.249C564.982 500.627 564.849 500.907 564.849 501.24C564.849 501.56 564.982 501.82 565.249 502.02C565.529 502.233 565.995 502.34 566.649 502.34H568.389C569.069 502.34 569.562 502.247 569.869 502.06C570.175 501.873 570.329 501.607 570.329 501.26ZM567.349 494.92C567.949 494.92 568.382 494.773 568.649 494.48C568.929 494.187 569.069 493.813 569.069 493.36V492.88C569.069 492.427 568.929 492.053 568.649 491.76C568.382 491.467 567.949 491.32 567.349 491.32C566.762 491.32 566.335 491.467 566.069 491.76C565.802 492.053 565.669 492.427 565.669 492.88V493.36C565.669 493.813 565.802 494.187 566.069 494.48C566.335 494.773 566.762 494.92 567.349 494.92Z" fill="black"/>
<path d="M177.854 391.32L177.914 387.12H177.754L174.954 394.3L172.154 387.12H171.994L172.054 391.32V398H170.074V384.04H172.814L174.954 389.58H175.094L177.254 384.04H179.834V398H177.854V391.32ZM190.786 398C190.16 398 189.686 397.84 189.366 397.52C189.06 397.2 188.873 396.78 188.806 396.26H188.706C188.506 396.887 188.14 397.373 187.606 397.72C187.086 398.067 186.42 398.24 185.606 398.24C184.553 398.24 183.713 397.967 183.086 397.42C182.46 396.86 182.146 396.093 182.146 395.12C182.146 394.12 182.513 393.36 183.246 392.84C183.993 392.307 185.133 392.04 186.666 392.04H188.646V391.24C188.646 389.84 187.906 389.14 186.426 389.14C185.76 389.14 185.22 389.273 184.806 389.54C184.393 389.793 184.046 390.133 183.766 390.56L182.466 389.5C182.76 388.94 183.253 388.46 183.946 388.06C184.64 387.647 185.533 387.44 186.626 387.44C187.933 387.44 188.96 387.753 189.706 388.38C190.453 389.007 190.826 389.913 190.826 391.1V396.28H192.126V398H190.786ZM186.226 396.64C186.933 396.64 187.513 396.48 187.966 396.16C188.42 395.84 188.646 395.427 188.646 394.92V393.42H186.706C185.133 393.42 184.346 393.893 184.346 394.84V395.24C184.346 395.707 184.513 396.06 184.846 396.3C185.18 396.527 185.64 396.64 186.226 396.64ZM194.459 396.24H197.199V389.44H194.459V387.68H199.379V390.42H199.499C199.592 390.06 199.725 389.713 199.899 389.38C200.072 389.047 200.292 388.76 200.559 388.52C200.825 388.267 201.152 388.067 201.539 387.92C201.925 387.76 202.379 387.68 202.899 387.68H204.139V389.76H202.099C201.299 389.76 200.645 390 200.139 390.48C199.632 390.947 199.379 391.58 199.379 392.38V396.24H203.119V398H194.459V396.24ZM216.331 399.12C216.331 400.187 215.884 400.973 214.991 401.48C214.097 401.987 212.737 402.24 210.911 402.24C210.017 402.24 209.264 402.18 208.651 402.06C208.051 401.953 207.557 401.793 207.171 401.58C206.797 401.367 206.524 401.107 206.351 400.8C206.191 400.493 206.111 400.147 206.111 399.76C206.111 399.2 206.264 398.76 206.571 398.44C206.891 398.133 207.337 397.907 207.911 397.76V397.56C207.564 397.427 207.284 397.24 207.071 397C206.871 396.76 206.771 396.447 206.771 396.06C206.771 395.553 206.944 395.173 207.291 394.92C207.637 394.653 208.084 394.453 208.631 394.32V394.22C208.004 393.927 207.517 393.513 207.171 392.98C206.824 392.447 206.651 391.807 206.651 391.06C206.651 390.513 206.751 390.02 206.951 389.58C207.151 389.127 207.431 388.747 207.791 388.44C208.164 388.12 208.604 387.873 209.111 387.7C209.631 387.527 210.211 387.44 210.851 387.44C211.571 387.44 212.217 387.553 212.791 387.78V387.44C212.791 387.04 212.904 386.707 213.131 386.44C213.357 386.173 213.704 386.04 214.171 386.04H216.051V387.76H213.651V388.24C214.104 388.547 214.451 388.94 214.691 389.42C214.931 389.887 215.051 390.433 215.051 391.06C215.051 391.607 214.951 392.107 214.751 392.56C214.551 393 214.264 393.38 213.891 393.7C213.531 394.007 213.091 394.247 212.571 394.42C212.064 394.58 211.491 394.66 210.851 394.66C210.397 394.66 209.971 394.62 209.571 394.54C209.331 394.607 209.091 394.72 208.851 394.88C208.611 395.04 208.491 395.26 208.491 395.54C208.491 395.86 208.644 396.06 208.951 396.14C209.257 396.22 209.637 396.26 210.091 396.26H212.411C213.797 396.26 214.797 396.527 215.411 397.06C216.024 397.58 216.331 398.267 216.331 399.12ZM214.291 399.26C214.291 398.913 214.151 398.633 213.871 398.42C213.591 398.22 213.084 398.12 212.351 398.12H208.771C208.264 398.36 208.011 398.747 208.011 399.28C208.011 399.667 208.171 400 208.491 400.28C208.824 400.56 209.371 400.7 210.131 400.7H211.751C212.577 400.7 213.204 400.573 213.631 400.32C214.071 400.08 214.291 399.727 214.291 399.26ZM210.851 393.16C211.557 393.16 212.077 392.993 212.411 392.66C212.744 392.327 212.911 391.88 212.911 391.32V390.78C212.911 390.22 212.744 389.773 212.411 389.44C212.077 389.107 211.557 388.94 210.851 388.94C210.144 388.94 209.624 389.107 209.291 389.44C208.957 389.773 208.791 390.22 208.791 390.78V391.32C208.791 391.88 208.957 392.327 209.291 392.66C209.624 392.993 210.144 393.16 210.851 393.16ZM223.563 385.8C223.003 385.8 222.61 385.687 222.383 385.46C222.17 385.233 222.063 384.953 222.063 384.62V384.2C222.063 383.867 222.17 383.587 222.383 383.36C222.61 383.133 222.996 383.02 223.543 383.02C224.103 383.02 224.49 383.133 224.703 383.36C224.93 383.587 225.043 383.867 225.043 384.2V384.62C225.043 384.953 224.93 385.233 224.703 385.46C224.49 385.687 224.11 385.8 223.563 385.8ZM218.943 396.24H222.463V389.44H218.943V387.68H224.643V396.24H227.943V398H218.943V396.24ZM230.595 398V387.68H232.775V389.44H232.875C232.982 389.173 233.115 388.92 233.275 388.68C233.448 388.427 233.655 388.213 233.895 388.04C234.135 387.853 234.415 387.707 234.735 387.6C235.055 387.493 235.428 387.44 235.855 387.44C236.895 387.44 237.735 387.78 238.375 388.46C239.015 389.14 239.335 390.107 239.335 391.36V398H237.155V391.68C237.155 390.04 236.442 389.22 235.015 389.22C234.735 389.22 234.462 389.26 234.195 389.34C233.928 389.407 233.688 389.513 233.475 389.66C233.262 389.807 233.088 389.993 232.955 390.22C232.835 390.447 232.775 390.707 232.775 391V398H230.595ZM263.12 385.98H256.78L256.42 390.94H256.58C256.9 390.393 257.286 389.96 257.74 389.64C258.193 389.307 258.813 389.14 259.6 389.14C260.2 389.14 260.753 389.24 261.26 389.44C261.78 389.64 262.226 389.927 262.6 390.3C262.986 390.673 263.286 391.133 263.5 391.68C263.726 392.213 263.84 392.82 263.84 393.5C263.84 394.193 263.726 394.833 263.5 395.42C263.273 395.993 262.946 396.493 262.52 396.92C262.093 397.333 261.566 397.66 260.94 397.9C260.313 398.127 259.6 398.24 258.8 398.24C258.173 398.24 257.613 398.167 257.12 398.02C256.64 397.887 256.206 397.707 255.82 397.48C255.446 397.24 255.12 396.973 254.84 396.68C254.56 396.373 254.313 396.06 254.1 395.74L255.74 394.46C255.913 394.727 256.093 394.98 256.28 395.22C256.48 395.447 256.7 395.647 256.94 395.82C257.18 395.993 257.453 396.127 257.76 396.22C258.08 396.313 258.44 396.36 258.84 396.36C259.706 396.36 260.366 396.127 260.82 395.66C261.273 395.18 261.5 394.533 261.5 393.72V393.56C261.5 392.747 261.266 392.113 260.8 391.66C260.346 391.207 259.693 390.98 258.84 390.98C258.213 390.98 257.72 391.093 257.36 391.32C257 391.547 256.686 391.8 256.42 392.08L254.56 391.82L255.08 384.04H263.12V385.98ZM270.892 398.24C270.012 398.24 269.245 398.08 268.592 397.76C267.952 397.427 267.418 396.953 266.992 396.34C266.578 395.727 266.272 394.973 266.072 394.08C265.872 393.187 265.772 392.167 265.772 391.02C265.772 389.887 265.872 388.873 266.072 387.98C266.272 387.073 266.578 386.313 266.992 385.7C267.418 385.087 267.952 384.62 268.592 384.3C269.245 383.967 270.012 383.8 270.892 383.8C271.772 383.8 272.532 383.967 273.172 384.3C273.825 384.62 274.358 385.087 274.772 385.7C275.198 386.313 275.512 387.073 275.712 387.98C275.912 388.873 276.012 389.887 276.012 391.02C276.012 392.167 275.912 393.187 275.712 394.08C275.512 394.973 275.198 395.727 274.772 396.34C274.358 396.953 273.825 397.427 273.172 397.76C272.532 398.08 271.772 398.24 270.892 398.24ZM270.892 396.4C271.905 396.4 272.625 396.027 273.052 395.28C273.492 394.52 273.712 393.5 273.712 392.22V389.82C273.712 388.54 273.492 387.527 273.052 386.78C272.625 386.02 271.905 385.64 270.892 385.64C270.385 385.64 269.952 385.74 269.592 385.94C269.232 386.127 268.938 386.407 268.712 386.78C268.485 387.14 268.318 387.58 268.212 388.1C268.118 388.607 268.072 389.18 268.072 389.82V392.22C268.072 392.86 268.118 393.44 268.212 393.96C268.318 394.467 268.485 394.907 268.712 395.28C268.938 395.64 269.232 395.92 269.592 396.12C269.952 396.307 270.385 396.4 270.892 396.4ZM270.892 392.2C270.425 392.2 270.098 392.107 269.912 391.92C269.738 391.733 269.652 391.507 269.652 391.24V390.8C269.652 390.533 269.738 390.307 269.912 390.12C270.098 389.933 270.425 389.84 270.892 389.84C271.358 389.84 271.678 389.933 271.852 390.12C272.038 390.307 272.132 390.533 272.132 390.8V391.24C272.132 391.507 272.038 391.733 271.852 391.92C271.678 392.107 271.358 392.2 270.892 392.2ZM278.464 387.68H280.644V389.44H280.764C281.071 388.813 281.477 388.327 281.984 387.98C282.491 387.62 283.124 387.44 283.884 387.44C285.097 387.44 286.064 387.893 286.784 388.8C287.504 389.707 287.864 391.053 287.864 392.84C287.864 394.627 287.504 395.973 286.784 396.88C286.064 397.787 285.097 398.24 283.884 398.24C283.124 398.24 282.491 398.067 281.984 397.72C281.477 397.36 281.071 396.867 280.764 396.24H280.644V402H278.464V387.68ZM282.984 396.46C283.811 396.46 284.444 396.207 284.884 395.7C285.337 395.193 285.564 394.52 285.564 393.68V392C285.564 391.16 285.337 390.487 284.884 389.98C284.444 389.473 283.811 389.22 282.984 389.22C282.664 389.22 282.364 389.26 282.084 389.34C281.804 389.42 281.557 389.54 281.344 389.7C281.131 389.86 280.957 390.06 280.824 390.3C280.704 390.527 280.644 390.8 280.644 391.12V394.56C280.644 394.88 280.704 395.16 280.824 395.4C280.957 395.627 281.131 395.82 281.344 395.98C281.557 396.14 281.804 396.26 282.084 396.34C282.364 396.42 282.664 396.46 282.984 396.46ZM289.776 398L293.616 392.76L289.936 387.68H292.476L293.836 389.64L294.916 391.2H295.036L296.096 389.64L297.456 387.68H299.816L296.116 392.68L299.996 398H297.436L295.896 395.78L294.836 394.26H294.716L293.676 395.78L292.156 398H289.776Z" fill="black"/>
<path d="M171.858 540.32L171.918 536.12H171.758L168.958 543.3L166.158 536.12H165.998L166.058 540.32V547H164.078V533.04H166.818L168.958 538.58H169.098L171.258 533.04H173.838V547H171.858V540.32ZM184.79 547C184.164 547 183.69 546.84 183.37 546.52C183.064 546.2 182.877 545.78 182.81 545.26H182.71C182.51 545.887 182.144 546.373 181.61 546.72C181.09 547.067 180.424 547.24 179.61 547.24C178.557 547.24 177.717 546.967 177.09 546.42C176.464 545.86 176.15 545.093 176.15 544.12C176.15 543.12 176.517 542.36 177.25 541.84C177.997 541.307 179.137 541.04 180.67 541.04H182.65V540.24C182.65 538.84 181.91 538.14 180.43 538.14C179.764 538.14 179.224 538.273 178.81 538.54C178.397 538.793 178.05 539.133 177.77 539.56L176.47 538.5C176.764 537.94 177.257 537.46 177.95 537.06C178.644 536.647 179.537 536.44 180.63 536.44C181.937 536.44 182.964 536.753 183.71 537.38C184.457 538.007 184.83 538.913 184.83 540.1V545.28H186.13V547H184.79ZM180.23 545.64C180.937 545.64 181.517 545.48 181.97 545.16C182.424 544.84 182.65 544.427 182.65 543.92V542.42H180.71C179.137 542.42 178.35 542.893 178.35 543.84V544.24C178.35 544.707 178.517 545.06 178.85 545.3C179.184 545.527 179.644 545.64 180.23 545.64ZM188.462 545.24H191.202V538.44H188.462V536.68H193.382V539.42H193.502C193.596 539.06 193.729 538.713 193.902 538.38C194.076 538.047 194.296 537.76 194.562 537.52C194.829 537.267 195.156 537.067 195.542 536.92C195.929 536.76 196.382 536.68 196.902 536.68H198.142V538.76H196.102C195.302 538.76 194.649 539 194.142 539.48C193.636 539.947 193.382 540.58 193.382 541.38V545.24H197.122V547H188.462V545.24ZM210.335 548.12C210.335 549.187 209.888 549.973 208.995 550.48C208.101 550.987 206.741 551.24 204.915 551.24C204.021 551.24 203.268 551.18 202.655 551.06C202.055 550.953 201.561 550.793 201.175 550.58C200.801 550.367 200.528 550.107 200.355 549.8C200.195 549.493 200.115 549.147 200.115 548.76C200.115 548.2 200.268 547.76 200.575 547.44C200.895 547.133 201.341 546.907 201.915 546.76V546.56C201.568 546.427 201.288 546.24 201.075 546C200.875 545.76 200.775 545.447 200.775 545.06C200.775 544.553 200.948 544.173 201.295 543.92C201.641 543.653 202.088 543.453 202.635 543.32V543.22C202.008 542.927 201.521 542.513 201.175 541.98C200.828 541.447 200.655 540.807 200.655 540.06C200.655 539.513 200.755 539.02 200.955 538.58C201.155 538.127 201.435 537.747 201.795 537.44C202.168 537.12 202.608 536.873 203.115 536.7C203.635 536.527 204.215 536.44 204.855 536.44C205.575 536.44 206.221 536.553 206.795 536.78V536.44C206.795 536.04 206.908 535.707 207.135 535.44C207.361 535.173 207.708 535.04 208.175 535.04H210.055V536.76H207.655V537.24C208.108 537.547 208.455 537.94 208.695 538.42C208.935 538.887 209.055 539.433 209.055 540.06C209.055 540.607 208.955 541.107 208.755 541.56C208.555 542 208.268 542.38 207.895 542.7C207.535 543.007 207.095 543.247 206.575 543.42C206.068 543.58 205.495 543.66 204.855 543.66C204.401 543.66 203.975 543.62 203.575 543.54C203.335 543.607 203.095 543.72 202.855 543.88C202.615 544.04 202.495 544.26 202.495 544.54C202.495 544.86 202.648 545.06 202.955 545.14C203.261 545.22 203.641 545.26 204.095 545.26H206.415C207.801 545.26 208.801 545.527 209.415 546.06C210.028 546.58 210.335 547.267 210.335 548.12ZM208.295 548.26C208.295 547.913 208.155 547.633 207.875 547.42C207.595 547.22 207.088 547.12 206.355 547.12H202.775C202.268 547.36 202.015 547.747 202.015 548.28C202.015 548.667 202.175 549 202.495 549.28C202.828 549.56 203.375 549.7 204.135 549.7H205.755C206.581 549.7 207.208 549.573 207.635 549.32C208.075 549.08 208.295 548.727 208.295 548.26ZM204.855 542.16C205.561 542.16 206.081 541.993 206.415 541.66C206.748 541.327 206.915 540.88 206.915 540.32V539.78C206.915 539.22 206.748 538.773 206.415 538.44C206.081 538.107 205.561 537.94 204.855 537.94C204.148 537.94 203.628 538.107 203.295 538.44C202.961 538.773 202.795 539.22 202.795 539.78V540.32C202.795 540.88 202.961 541.327 203.295 541.66C203.628 541.993 204.148 542.16 204.855 542.16ZM217.567 534.8C217.007 534.8 216.614 534.687 216.387 534.46C216.174 534.233 216.067 533.953 216.067 533.62V533.2C216.067 532.867 216.174 532.587 216.387 532.36C216.614 532.133 217 532.02 217.547 532.02C218.107 532.02 218.494 532.133 218.707 532.36C218.934 532.587 219.047 532.867 219.047 533.2V533.62C219.047 533.953 218.934 534.233 218.707 534.46C218.494 534.687 218.114 534.8 217.567 534.8ZM212.947 545.24H216.467V538.44H212.947V536.68H218.647V545.24H221.947V547H212.947V545.24ZM224.599 547V536.68H226.779V538.44H226.879C226.986 538.173 227.119 537.92 227.279 537.68C227.452 537.427 227.659 537.213 227.899 537.04C228.139 536.853 228.419 536.707 228.739 536.6C229.059 536.493 229.432 536.44 229.859 536.44C230.899 536.44 231.739 536.78 232.379 537.46C233.019 538.14 233.339 539.107 233.339 540.36V547H231.159V540.68C231.159 539.04 230.446 538.22 229.019 538.22C228.739 538.22 228.466 538.26 228.199 538.34C227.932 538.407 227.692 538.513 227.479 538.66C227.266 538.807 227.092 538.993 226.959 539.22C226.839 539.447 226.779 539.707 226.779 540V547H224.599ZM248.663 547V545.14H252.583V534.68H252.423L249.183 538.14L247.803 536.9L251.363 533.04H254.823V545.14H258.203V547H248.663ZM264.896 547.24C264.016 547.24 263.249 547.08 262.596 546.76C261.956 546.427 261.422 545.953 260.996 545.34C260.582 544.727 260.276 543.973 260.076 543.08C259.876 542.187 259.776 541.167 259.776 540.02C259.776 538.887 259.876 537.873 260.076 536.98C260.276 536.073 260.582 535.313 260.996 534.7C261.422 534.087 261.956 533.62 262.596 533.3C263.249 532.967 264.016 532.8 264.896 532.8C265.776 532.8 266.536 532.967 267.176 533.3C267.829 533.62 268.362 534.087 268.776 534.7C269.202 535.313 269.516 536.073 269.716 536.98C269.916 537.873 270.016 538.887 270.016 540.02C270.016 541.167 269.916 542.187 269.716 543.08C269.516 543.973 269.202 544.727 268.776 545.34C268.362 545.953 267.829 546.427 267.176 546.76C266.536 547.08 265.776 547.24 264.896 547.24ZM264.896 545.4C265.909 545.4 266.629 545.027 267.056 544.28C267.496 543.52 267.716 542.5 267.716 541.22V538.82C267.716 537.54 267.496 536.527 267.056 535.78C266.629 535.02 265.909 534.64 264.896 534.64C264.389 534.64 263.956 534.74 263.596 534.94C263.236 535.127 262.942 535.407 262.716 535.78C262.489 536.14 262.322 536.58 262.216 537.1C262.122 537.607 262.076 538.18 262.076 538.82V541.22C262.076 541.86 262.122 542.44 262.216 542.96C262.322 543.467 262.489 543.907 262.716 544.28C262.942 544.64 263.236 544.92 263.596 545.12C263.956 545.307 264.389 545.4 264.896 545.4ZM264.896 541.2C264.429 541.2 264.102 541.107 263.916 540.92C263.742 540.733 263.656 540.507 263.656 540.24V539.8C263.656 539.533 263.742 539.307 263.916 539.12C264.102 538.933 264.429 538.84 264.896 538.84C265.362 538.84 265.682 538.933 265.856 539.12C266.042 539.307 266.136 539.533 266.136 539.8V540.24C266.136 540.507 266.042 540.733 265.856 540.92C265.682 541.107 265.362 541.2 264.896 541.2ZM276.888 547.24C276.008 547.24 275.241 547.08 274.588 546.76C273.948 546.427 273.414 545.953 272.988 545.34C272.574 544.727 272.268 543.973 272.068 543.08C271.868 542.187 271.768 541.167 271.768 540.02C271.768 538.887 271.868 537.873 272.068 536.98C272.268 536.073 272.574 535.313 272.988 534.7C273.414 534.087 273.948 533.62 274.588 533.3C275.241 532.967 276.008 532.8 276.888 532.8C277.768 532.8 278.528 532.967 279.168 533.3C279.821 533.62 280.354 534.087 280.768 534.7C281.194 535.313 281.508 536.073 281.708 536.98C281.908 537.873 282.008 538.887 282.008 540.02C282.008 541.167 281.908 542.187 281.708 543.08C281.508 543.973 281.194 544.727 280.768 545.34C280.354 545.953 279.821 546.427 279.168 546.76C278.528 547.08 277.768 547.24 276.888 547.24ZM276.888 545.4C277.901 545.4 278.621 545.027 279.048 544.28C279.488 543.52 279.708 542.5 279.708 541.22V538.82C279.708 537.54 279.488 536.527 279.048 535.78C278.621 535.02 277.901 534.64 276.888 534.64C276.381 534.64 275.948 534.74 275.588 534.94C275.228 535.127 274.934 535.407 274.708 535.78C274.481 536.14 274.314 536.58 274.208 537.1C274.114 537.607 274.068 538.18 274.068 538.82V541.22C274.068 541.86 274.114 542.44 274.208 542.96C274.314 543.467 274.481 543.907 274.708 544.28C274.934 544.64 275.228 544.92 275.588 545.12C275.948 545.307 276.381 545.4 276.888 545.4ZM276.888 541.2C276.421 541.2 276.094 541.107 275.908 540.92C275.734 540.733 275.648 540.507 275.648 540.24V539.8C275.648 539.533 275.734 539.307 275.908 539.12C276.094 538.933 276.421 538.84 276.888 538.84C277.354 538.84 277.674 538.933 277.848 539.12C278.034 539.307 278.128 539.533 278.128 539.8V540.24C278.128 540.507 278.034 540.733 277.848 540.92C277.674 541.107 277.354 541.2 276.888 541.2ZM284.46 536.68H286.64V538.44H286.76C287.067 537.813 287.473 537.327 287.98 536.98C288.487 536.62 289.12 536.44 289.88 536.44C291.093 536.44 292.06 536.893 292.78 537.8C293.5 538.707 293.86 540.053 293.86 541.84C293.86 543.627 293.5 544.973 292.78 545.88C292.06 546.787 291.093 547.24 289.88 547.24C289.12 547.24 288.487 547.067 287.98 546.72C287.473 546.36 287.067 545.867 286.76 545.24H286.64V551H284.46V536.68ZM288.98 545.46C289.807 545.46 290.44 545.207 290.88 544.7C291.333 544.193 291.56 543.52 291.56 542.68V541C291.56 540.16 291.333 539.487 290.88 538.98C290.44 538.473 289.807 538.22 288.98 538.22C288.66 538.22 288.36 538.26 288.08 538.34C287.8 538.42 287.553 538.54 287.34 538.7C287.127 538.86 286.953 539.06 286.82 539.3C286.7 539.527 286.64 539.8 286.64 540.12V543.56C286.64 543.88 286.7 544.16 286.82 544.4C286.953 544.627 287.127 544.82 287.34 544.98C287.553 545.14 287.8 545.26 288.08 545.34C288.36 545.42 288.66 545.46 288.98 545.46ZM295.772 547L299.612 541.76L295.932 536.68H298.472L299.832 538.64L300.912 540.2H301.032L302.092 538.64L303.452 536.68H305.812L302.112 541.68L305.992 547H303.432L301.892 544.78L300.832 543.26H300.712L299.672 544.78L298.152 547H295.772Z" fill="black"/>
<path d="M1051.86 490.32L1051.92 486.12H1051.76L1048.96 493.3L1046.16 486.12H1046L1046.06 490.32V497H1044.08V483.04H1046.82L1048.96 488.58H1049.1L1051.26 483.04H1053.84V497H1051.86V490.32ZM1064.79 497C1064.16 497 1063.69 496.84 1063.37 496.52C1063.06 496.2 1062.88 495.78 1062.81 495.26H1062.71C1062.51 495.887 1062.14 496.373 1061.61 496.72C1061.09 497.067 1060.42 497.24 1059.61 497.24C1058.56 497.24 1057.72 496.967 1057.09 496.42C1056.46 495.86 1056.15 495.093 1056.15 494.12C1056.15 493.12 1056.52 492.36 1057.25 491.84C1058 491.307 1059.14 491.04 1060.67 491.04H1062.65V490.24C1062.65 488.84 1061.91 488.14 1060.43 488.14C1059.76 488.14 1059.22 488.273 1058.81 488.54C1058.4 488.793 1058.05 489.133 1057.77 489.56L1056.47 488.5C1056.76 487.94 1057.26 487.46 1057.95 487.06C1058.64 486.647 1059.54 486.44 1060.63 486.44C1061.94 486.44 1062.96 486.753 1063.71 487.38C1064.46 488.007 1064.83 488.913 1064.83 490.1V495.28H1066.13V497H1064.79ZM1060.23 495.64C1060.94 495.64 1061.52 495.48 1061.97 495.16C1062.42 494.84 1062.65 494.427 1062.65 493.92V492.42H1060.71C1059.14 492.42 1058.35 492.893 1058.35 493.84V494.24C1058.35 494.707 1058.52 495.06 1058.85 495.3C1059.18 495.527 1059.64 495.64 1060.23 495.64ZM1068.46 495.24H1071.2V488.44H1068.46V486.68H1073.38V489.42H1073.5C1073.6 489.06 1073.73 488.713 1073.9 488.38C1074.08 488.047 1074.3 487.76 1074.56 487.52C1074.83 487.267 1075.16 487.067 1075.54 486.92C1075.93 486.76 1076.38 486.68 1076.9 486.68H1078.14V488.76H1076.1C1075.3 488.76 1074.65 489 1074.14 489.48C1073.64 489.947 1073.38 490.58 1073.38 491.38V495.24H1077.12V497H1068.46V495.24ZM1090.33 498.12C1090.33 499.187 1089.89 499.973 1088.99 500.48C1088.1 500.987 1086.74 501.24 1084.91 501.24C1084.02 501.24 1083.27 501.18 1082.65 501.06C1082.05 500.953 1081.56 500.793 1081.17 500.58C1080.8 500.367 1080.53 500.107 1080.35 499.8C1080.19 499.493 1080.11 499.147 1080.11 498.76C1080.11 498.2 1080.27 497.76 1080.57 497.44C1080.89 497.133 1081.34 496.907 1081.91 496.76V496.56C1081.57 496.427 1081.29 496.24 1081.07 496C1080.87 495.76 1080.77 495.447 1080.77 495.06C1080.77 494.553 1080.95 494.173 1081.29 493.92C1081.64 493.653 1082.09 493.453 1082.63 493.32V493.22C1082.01 492.927 1081.52 492.513 1081.17 491.98C1080.83 491.447 1080.65 490.807 1080.65 490.06C1080.65 489.513 1080.75 489.02 1080.95 488.58C1081.15 488.127 1081.43 487.747 1081.79 487.44C1082.17 487.12 1082.61 486.873 1083.11 486.7C1083.63 486.527 1084.21 486.44 1084.85 486.44C1085.57 486.44 1086.22 486.553 1086.79 486.78V486.44C1086.79 486.04 1086.91 485.707 1087.13 485.44C1087.36 485.173 1087.71 485.04 1088.17 485.04H1090.05V486.76H1087.65V487.24C1088.11 487.547 1088.45 487.94 1088.69 488.42C1088.93 488.887 1089.05 489.433 1089.05 490.06C1089.05 490.607 1088.95 491.107 1088.75 491.56C1088.55 492 1088.27 492.38 1087.89 492.7C1087.53 493.007 1087.09 493.247 1086.57 493.42C1086.07 493.58 1085.49 493.66 1084.85 493.66C1084.4 493.66 1083.97 493.62 1083.57 493.54C1083.33 493.607 1083.09 493.72 1082.85 493.88C1082.61 494.04 1082.49 494.26 1082.49 494.54C1082.49 494.86 1082.65 495.06 1082.95 495.14C1083.26 495.22 1083.64 495.26 1084.09 495.26H1086.41C1087.8 495.26 1088.8 495.527 1089.41 496.06C1090.03 496.58 1090.33 497.267 1090.33 498.12ZM1088.29 498.26C1088.29 497.913 1088.15 497.633 1087.87 497.42C1087.59 497.22 1087.09 497.12 1086.35 497.12H1082.77C1082.27 497.36 1082.01 497.747 1082.01 498.28C1082.01 498.667 1082.17 499 1082.49 499.28C1082.83 499.56 1083.37 499.7 1084.13 499.7H1085.75C1086.58 499.7 1087.21 499.573 1087.63 499.32C1088.07 499.08 1088.29 498.727 1088.29 498.26ZM1084.85 492.16C1085.56 492.16 1086.08 491.993 1086.41 491.66C1086.75 491.327 1086.91 490.88 1086.91 490.32V489.78C1086.91 489.22 1086.75 488.773 1086.41 488.44C1086.08 488.107 1085.56 487.94 1084.85 487.94C1084.15 487.94 1083.63 488.107 1083.29 488.44C1082.96 488.773 1082.79 489.22 1082.79 489.78V490.32C1082.79 490.88 1082.96 491.327 1083.29 491.66C1083.63 491.993 1084.15 492.16 1084.85 492.16ZM1097.57 484.8C1097.01 484.8 1096.61 484.687 1096.39 484.46C1096.17 484.233 1096.07 483.953 1096.07 483.62V483.2C1096.07 482.867 1096.17 482.587 1096.39 482.36C1096.61 482.133 1097 482.02 1097.55 482.02C1098.11 482.02 1098.49 482.133 1098.71 482.36C1098.93 482.587 1099.05 482.867 1099.05 483.2V483.62C1099.05 483.953 1098.93 484.233 1098.71 484.46C1098.49 484.687 1098.11 484.8 1097.57 484.8ZM1092.95 495.24H1096.47V488.44H1092.95V486.68H1098.65V495.24H1101.95V497H1092.95V495.24ZM1104.6 497V486.68H1106.78V488.44H1106.88C1106.99 488.173 1107.12 487.92 1107.28 487.68C1107.45 487.427 1107.66 487.213 1107.9 487.04C1108.14 486.853 1108.42 486.707 1108.74 486.6C1109.06 486.493 1109.43 486.44 1109.86 486.44C1110.9 486.44 1111.74 486.78 1112.38 487.46C1113.02 488.14 1113.34 489.107 1113.34 490.36V497H1111.16V490.68C1111.16 489.04 1110.45 488.22 1109.02 488.22C1108.74 488.22 1108.47 488.26 1108.2 488.34C1107.93 488.407 1107.69 488.513 1107.48 488.66C1107.27 488.807 1107.09 488.993 1106.96 489.22C1106.84 489.447 1106.78 489.707 1106.78 490V497H1104.6ZM1128.66 497V495.14H1132.58V484.68H1132.42L1129.18 488.14L1127.8 486.9L1131.36 483.04H1134.82V495.14H1138.2V497H1128.66ZM1144.9 497.24C1144.02 497.24 1143.25 497.08 1142.6 496.76C1141.96 496.427 1141.42 495.953 1141 495.34C1140.58 494.727 1140.28 493.973 1140.08 493.08C1139.88 492.187 1139.78 491.167 1139.78 490.02C1139.78 488.887 1139.88 487.873 1140.08 486.98C1140.28 486.073 1140.58 485.313 1141 484.7C1141.42 484.087 1141.96 483.62 1142.6 483.3C1143.25 482.967 1144.02 482.8 1144.9 482.8C1145.78 482.8 1146.54 482.967 1147.18 483.3C1147.83 483.62 1148.36 484.087 1148.78 484.7C1149.2 485.313 1149.52 486.073 1149.72 486.98C1149.92 487.873 1150.02 488.887 1150.02 490.02C1150.02 491.167 1149.92 492.187 1149.72 493.08C1149.52 493.973 1149.2 494.727 1148.78 495.34C1148.36 495.953 1147.83 496.427 1147.18 496.76C1146.54 497.08 1145.78 497.24 1144.9 497.24ZM1144.9 495.4C1145.91 495.4 1146.63 495.027 1147.06 494.28C1147.5 493.52 1147.72 492.5 1147.72 491.22V488.82C1147.72 487.54 1147.5 486.527 1147.06 485.78C1146.63 485.02 1145.91 484.64 1144.9 484.64C1144.39 484.64 1143.96 484.74 1143.6 484.94C1143.24 485.127 1142.94 485.407 1142.72 485.78C1142.49 486.14 1142.32 486.58 1142.22 487.1C1142.12 487.607 1142.08 488.18 1142.08 488.82V491.22C1142.08 491.86 1142.12 492.44 1142.22 492.96C1142.32 493.467 1142.49 493.907 1142.72 494.28C1142.94 494.64 1143.24 494.92 1143.6 495.12C1143.96 495.307 1144.39 495.4 1144.9 495.4ZM1144.9 491.2C1144.43 491.2 1144.1 491.107 1143.92 490.92C1143.74 490.733 1143.66 490.507 1143.66 490.24V489.8C1143.66 489.533 1143.74 489.307 1143.92 489.12C1144.1 488.933 1144.43 488.84 1144.9 488.84C1145.36 488.84 1145.68 488.933 1145.86 489.12C1146.04 489.307 1146.14 489.533 1146.14 489.8V490.24C1146.14 490.507 1146.04 490.733 1145.86 490.92C1145.68 491.107 1145.36 491.2 1144.9 491.2ZM1156.89 497.24C1156.01 497.24 1155.24 497.08 1154.59 496.76C1153.95 496.427 1153.41 495.953 1152.99 495.34C1152.57 494.727 1152.27 493.973 1152.07 493.08C1151.87 492.187 1151.77 491.167 1151.77 490.02C1151.77 488.887 1151.87 487.873 1152.07 486.98C1152.27 486.073 1152.57 485.313 1152.99 484.7C1153.41 484.087 1153.95 483.62 1154.59 483.3C1155.24 482.967 1156.01 482.8 1156.89 482.8C1157.77 482.8 1158.53 482.967 1159.17 483.3C1159.82 483.62 1160.35 484.087 1160.77 484.7C1161.19 485.313 1161.51 486.073 1161.71 486.98C1161.91 487.873 1162.01 488.887 1162.01 490.02C1162.01 491.167 1161.91 492.187 1161.71 493.08C1161.51 493.973 1161.19 494.727 1160.77 495.34C1160.35 495.953 1159.82 496.427 1159.17 496.76C1158.53 497.08 1157.77 497.24 1156.89 497.24ZM1156.89 495.4C1157.9 495.4 1158.62 495.027 1159.05 494.28C1159.49 493.52 1159.71 492.5 1159.71 491.22V488.82C1159.71 487.54 1159.49 486.527 1159.05 485.78C1158.62 485.02 1157.9 484.64 1156.89 484.64C1156.38 484.64 1155.95 484.74 1155.59 484.94C1155.23 485.127 1154.93 485.407 1154.71 485.78C1154.48 486.14 1154.31 486.58 1154.21 487.1C1154.11 487.607 1154.07 488.18 1154.07 488.82V491.22C1154.07 491.86 1154.11 492.44 1154.21 492.96C1154.31 493.467 1154.48 493.907 1154.71 494.28C1154.93 494.64 1155.23 494.92 1155.59 495.12C1155.95 495.307 1156.38 495.4 1156.89 495.4ZM1156.89 491.2C1156.42 491.2 1156.09 491.107 1155.91 490.92C1155.73 490.733 1155.65 490.507 1155.65 490.24V489.8C1155.65 489.533 1155.73 489.307 1155.91 489.12C1156.09 488.933 1156.42 488.84 1156.89 488.84C1157.35 488.84 1157.67 488.933 1157.85 489.12C1158.03 489.307 1158.13 489.533 1158.13 489.8V490.24C1158.13 490.507 1158.03 490.733 1157.85 490.92C1157.67 491.107 1157.35 491.2 1156.89 491.2ZM1164.46 486.68H1166.64V488.44H1166.76C1167.07 487.813 1167.47 487.327 1167.98 486.98C1168.49 486.62 1169.12 486.44 1169.88 486.44C1171.09 486.44 1172.06 486.893 1172.78 487.8C1173.5 488.707 1173.86 490.053 1173.86 491.84C1173.86 493.627 1173.5 494.973 1172.78 495.88C1172.06 496.787 1171.09 497.24 1169.88 497.24C1169.12 497.24 1168.49 497.067 1167.98 496.72C1167.47 496.36 1167.07 495.867 1166.76 495.24H1166.64V501H1164.46V486.68ZM1168.98 495.46C1169.81 495.46 1170.44 495.207 1170.88 494.7C1171.33 494.193 1171.56 493.52 1171.56 492.68V491C1171.56 490.16 1171.33 489.487 1170.88 488.98C1170.44 488.473 1169.81 488.22 1168.98 488.22C1168.66 488.22 1168.36 488.26 1168.08 488.34C1167.8 488.42 1167.55 488.54 1167.34 488.7C1167.13 488.86 1166.95 489.06 1166.82 489.3C1166.7 489.527 1166.64 489.8 1166.64 490.12V493.56C1166.64 493.88 1166.7 494.16 1166.82 494.4C1166.95 494.627 1167.13 494.82 1167.34 494.98C1167.55 495.14 1167.8 495.26 1168.08 495.34C1168.36 495.42 1168.66 495.46 1168.98 495.46ZM1175.77 497L1179.61 491.76L1175.93 486.68H1178.47L1179.83 488.64L1180.91 490.2H1181.03L1182.09 488.64L1183.45 486.68H1185.81L1182.11 491.68L1185.99 497H1183.43L1181.89 494.78L1180.83 493.26H1180.71L1179.67 494.78L1178.15 497H1175.77Z" fill="black"/>
<path d="M892.707 495.707C893.098 495.317 893.098 494.683 892.707 494.293L886.343 487.929C885.953 487.538 885.319 487.538 884.929 487.929C884.538 488.319 884.538 488.953 884.929 489.343L890.586 495L884.929 500.657C884.538 501.047 884.538 501.681 884.929 502.071C885.319 502.462 885.953 502.462 886.343 502.071L892.707 495.707ZM606 496L892 496L892 494L606 494L606 496Z" fill="black"/>
</svg>
